<svg width="140" height="140" viewBox="0 0 140 140" fill="none" xmlns="http://www.w3.org/2000/svg">
<g id="approval 1">
<g id="approval--work-approval">
<g id="documents">
<path id="Vector" d="M64.6309 61.1298L57.3677 51.989L36.4489 46.9609L3.66602 65.9261L49.053 123.072L93.41 97.3494L84.5527 86.2019" stroke="#3D747D" stroke-linecap="round" stroke-linejoin="round"/>
<path id="Vector_2" d="M45.7133 58.7045L34.2578 48.2119L36.4482 46.9453L45.7133 58.7045Z" fill="#43B9CE"/>
<path id="Vector_3" d="M45.7133 58.7045L34.2578 48.2119L36.4482 46.9453L45.7133 58.7045Z" stroke="#3D747D" stroke-linecap="round" stroke-linejoin="round"/>
<path id="Vector_4" d="M65.8147 88.1601C60.4068 85.0439 57.2493 79.77 57.3128 74.8564C53.4776 74.0004 49.4619 74.5729 46.0186 76.4666C39.0236 80.5164 37.8491 89.4798 43.4051 96.4616C48.9611 103.456 59.1367 105.832 66.1317 101.768C68.1195 100.657 69.7485 99.0013 70.827 96.9956C71.9056 94.9899 72.3888 92.7179 72.2198 90.4469C69.9626 90.0839 67.7915 89.3087 65.8147 88.1601Z" fill="#ECF7FA"/>
<path id="Vector_5" d="M65.8147 88.1601C60.4068 85.0439 57.2493 79.77 57.3128 74.8564C53.4776 74.0004 49.4619 74.5729 46.0186 76.4666C39.0236 80.5164 37.8491 89.4798 43.4051 96.4616C48.9611 103.456 59.1367 105.832 66.1317 101.768C68.1195 100.657 69.7485 99.0013 70.827 96.9956C71.9056 94.9899 72.3888 92.7179 72.2198 90.4469C69.9626 90.0839 67.7915 89.3087 65.8147 88.1601Z" stroke="#3D747D" stroke-linecap="round" stroke-linejoin="round"/>
<path id="Vector_6" d="M57.3548 51.9601L45.7143 58.7045L36.4492 46.9453" stroke="#3D747D" stroke-linecap="round" stroke-linejoin="round"/>
<path id="Vector_7" d="M17.4453 70.3579L36.9384 59.0742" stroke="#3D747D" stroke-linecap="round" stroke-linejoin="round"/>
<path id="Vector_8" d="M23.5293 78.0384L53.8578 60.4844" stroke="#3D747D" stroke-linecap="round" stroke-linejoin="round"/>
<path id="Vector_9" d="M46.9941 92.4789L60.2448 96.0155L59.77 82.5938" stroke="#3D747D" stroke-linecap="round" stroke-linejoin="round"/>
</g>
<g id="hand">
<path id="Vector_10" d="M61.6689 64.6719L58.6734 69.8194C55.2681 75.7049 58.464 83.924 65.813 88.1638C72.3961 91.9748 81.1745 91.7381 85.3061 85.1285L88.2471 80.0271" stroke="#3D747D" stroke-linecap="round" stroke-linejoin="round"/>
<path id="Vector_11" d="M66.7596 59.8828C64.2722 60.9522 62.3068 62.9594 61.2902 65.4688C58.7653 71.6749 62.8033 78.9339 69.0596 82.5382C74.6289 85.7544 81.9011 86.0651 86.4279 82.0893C87.1191 81.4828 87.7293 80.7898 88.2433 80.0273" stroke="#3D747D" stroke-linecap="round" stroke-linejoin="round"/>
<path id="Vector_12" d="M106.686 39.3167L103.412 44.9655C102.199 47.077 99.625 48.1851 96.7475 48.1851C88.3266 48.1851 81.4356 39.5115 84.5666 34.0902L87.826 28.4414C86.3478 31.0152 87.206 34.1824 88.8426 36.5718C93.604 43.525 103.753 44.3643 106.686 39.3167Z" stroke="#3D747D" stroke-linecap="round" stroke-linejoin="round"/>
<path id="Vector_13" d="M118.433 61.5942C114.358 70.0228 106.302 79.5867 99.758 84.8222C97.4604 84.4744 95.2164 83.8357 93.08 82.9216C88.9316 80.8412 85.2253 77.9774 82.1656 74.4881L86.8635 66.4114C86.1075 65.0388 85.4205 63.6294 84.805 62.1884C84.1663 62.4995 83.4471 62.6053 82.7459 62.4915C83.8282 66.0023 82.3109 67.4805 79.9613 67.1767C80.9779 70.4368 78.6548 71.7852 75.4743 70.5688C75.9226 73.1419 72.2323 73.528 69.271 71.0436C66.9166 69.0676 63.1704 63.4851 65.71 60.9888C66.0302 60.6782 66.4421 60.4792 66.8844 60.4211C66.4096 58.6127 66.5353 56.7861 68.297 55.7226C68.5865 55.5436 68.9102 55.4268 69.2473 55.3798C68.7425 52.5526 70.2304 50.5954 72.4146 49.9551C72.4355 49.238 72.6422 48.5386 73.0144 47.9253C73.3865 47.312 73.9115 46.8058 74.5379 46.4562C73.4249 44.7429 72.5585 42.8815 71.9642 40.9267C71.2876 38.1393 73.4305 36.4865 76.2801 38.6832C77.2185 39.4073 78.4572 40.4512 79.9354 41.6522C80.3446 41.4148 84.2115 39.5141 84.2115 39.5141C84.363 39.9862 84.5529 40.4456 84.7792 40.8869C84.7792 40.8869 84.0809 42.1012 82.9581 44.0151C86.5611 46.7075 91.0083 49.5843 95.7466 51.1414L97.4489 48.2088C99.4542 48.1583 101.361 47.3303 102.767 45.8996C107.208 49.7924 105.063 47.7123 118.433 61.5942Z" stroke="#3D747D" stroke-linecap="round" stroke-linejoin="round"/>
<path id="Vector_14" d="M104.165 41.6273C97.6842 44.9266 87.494 38.997 87.0876 31.7946C86.8565 27.7042 90.1599 25.2227 94.489 25.2227C99.5967 25.2227 104.997 28.7104 106.829 33.3922C108.138 36.7305 107.366 39.9976 104.165 41.6273Z" fill="#43B9CE"/>
<path id="Vector_15" d="M104.165 41.6273C97.6842 44.9266 87.494 38.997 87.0876 31.7946C86.8565 27.7042 90.1599 25.2227 94.489 25.2227C99.5967 25.2227 104.997 28.7104 106.829 33.3922C108.138 36.7305 107.366 39.9976 104.165 41.6273Z" stroke="#3D747D" stroke-linecap="round" stroke-linejoin="round"/>
<path id="Vector_16" d="M93.093 82.918C92.1427 85.3074 91.9842 87.0376 92.7893 87.7087C93.8715 88.6066 96.4844 87.4182 99.7718 84.8186C97.4859 84.4172 95.2477 83.7803 93.093 82.918Z" fill="#43B9CE"/>
<path id="Vector_17" d="M93.093 82.918C92.1427 85.3074 91.9842 87.0376 92.7893 87.7087C93.8715 88.6066 96.4844 87.4182 99.7718 84.8186C97.4859 84.4172 95.2477 83.7803 93.093 82.918Z" stroke="#3D747D" stroke-linecap="round" stroke-linejoin="round"/>
<path id="Vector_18" d="M114.143 57.1345L118.432 61.5949C121.353 55.2199 119.215 53.7243 114.143 57.1345Z" fill="#43B9CE"/>
<path id="Vector_19" d="M114.143 57.1345L118.432 61.5949C121.353 55.2199 119.215 53.7243 114.143 57.1345Z" stroke="#3D747D" stroke-linecap="round" stroke-linejoin="round"/>
<path id="Vector_20" d="M88.2366 80.0184C87.9587 80.4527 87.6452 80.8633 87.2995 81.2459L82.166 74.4883C83.9765 76.5528 86.0127 78.4077 88.2366 80.0184Z" fill="#43B9CE"/>
<path id="Vector_21" d="M88.2366 80.0184C87.9587 80.4527 87.6452 80.8633 87.2995 81.2459L82.166 74.4883C83.9765 76.5528 86.0127 78.4077 88.2366 80.0184Z" stroke="#3D747D" stroke-linecap="round" stroke-linejoin="round"/>
<path id="Vector_22" d="M127.749 70.5549C127.754 70.7902 127.712 71.024 127.625 71.2427C127.538 71.4614 127.408 71.6606 127.244 71.8286C127.079 71.9966 126.882 72.13 126.665 72.2211C126.448 72.3122 126.215 72.3591 125.98 72.359C125.745 72.359 125.512 72.312 125.295 72.2208C125.078 72.1297 124.881 71.9961 124.717 71.8281C124.552 71.66 124.422 71.4608 124.336 71.242C124.249 71.0233 124.207 70.7895 124.211 70.5542C124.221 70.0911 124.411 69.6501 124.742 69.3259C125.073 69.0018 125.517 68.8202 125.981 68.8203C126.444 68.8204 126.889 69.0021 127.219 69.3264C127.55 69.6507 127.74 70.0918 127.749 70.5549Z" fill="#43B9CE"/>
<path id="Vector_23" d="M127.749 70.5549C127.754 70.7902 127.712 71.024 127.625 71.2427C127.538 71.4614 127.408 71.6606 127.244 71.8286C127.079 71.9966 126.882 72.13 126.665 72.2211C126.448 72.3122 126.215 72.3591 125.98 72.359C125.745 72.359 125.512 72.312 125.295 72.2208C125.078 72.1297 124.881 71.9961 124.717 71.8281C124.552 71.66 124.422 71.4608 124.336 71.242C124.249 71.0233 124.207 70.7895 124.211 70.5542C124.221 70.0911 124.411 69.6501 124.742 69.3259C125.073 69.0018 125.517 68.8202 125.981 68.8203C126.444 68.8204 126.889 69.0021 127.219 69.3264C127.55 69.6507 127.74 70.0918 127.749 70.5549Z" stroke="#3D747D" stroke-linecap="round" stroke-linejoin="round"/>
<path id="Vector_24" d="M97.4615 48.1723C94.8774 48.2506 92.3226 47.6066 90.0844 46.3127C87.8462 45.0187 86.0133 43.1262 84.7917 40.8477C84.7917 40.8477 84.0935 42.0612 82.9707 43.9758C86.5737 46.6676 91.0208 49.5444 95.7592 51.1022L97.4615 48.1723Z" fill="#ECF7FA"/>
<path id="Vector_25" d="M97.4615 48.1723C94.8774 48.2506 92.3226 47.6066 90.0844 46.3127C87.8462 45.0187 86.0133 43.1262 84.7917 40.8477C84.7917 40.8477 84.0935 42.0612 82.9707 43.9758C86.5737 46.6676 91.0208 49.5444 95.7592 51.1022L97.4615 48.1723Z" stroke="#3D747D" stroke-linecap="round" stroke-linejoin="round"/>
<path id="Vector_26" d="M86.8514 66.4105C86.095 65.0381 85.4078 63.6286 84.7923 62.1875C84.1536 62.4986 83.4343 62.6044 82.7331 62.4905C83.8154 66.0013 82.2981 67.4795 79.9485 67.1758C80.9652 70.4359 78.6421 71.7842 75.4616 70.5679C75.9105 73.1409 72.2196 73.5271 69.2583 71.0427C69.1187 70.9226 68.9553 70.7634 68.7695 70.5944C69.5389 72.7238 71.066 74.495 73.0589 75.5695C75.6969 77.0875 80.151 77.8129 81.5845 75.4242L86.8514 66.4105Z" fill="#ECF7FA"/>
<path id="Vector_27" d="M86.8514 66.4105C86.095 65.0381 85.4078 63.6286 84.7923 62.1875C84.1536 62.4986 83.4343 62.6044 82.7331 62.4905C83.8154 66.0013 82.2981 67.4795 79.9485 67.1758C80.9652 70.4359 78.6421 71.7842 75.4616 70.5679C75.9105 73.1409 72.2196 73.5271 69.2583 71.0427C69.1187 70.9226 68.9553 70.7634 68.7695 70.5944C69.5389 72.7238 71.066 74.495 73.0589 75.5695C75.6969 77.0875 80.151 77.8129 81.5845 75.4242L86.8514 66.4105Z" stroke="#3D747D" stroke-linecap="round" stroke-linejoin="round"/>
<path id="Vector_28" d="M86.8516 66.4141C88.4743 69.3174 90.5865 72.1285 93.0143 73.1578" stroke="#3D747D" stroke-linecap="round" stroke-linejoin="round"/>
<path id="Vector_29" d="M82.971 43.9747C79.8617 41.6523 78.396 40.2677 76.2929 38.6561C73.4475 36.4755 71.3074 38.1143 71.977 40.8996C73.1201 45.6512 80.2478 54.7745 83.3801 58.4529C83.3801 58.4529 83.8815 60.0365 84.8053 62.1879" stroke="#3D747D" stroke-linecap="round" stroke-linejoin="round"/>
<path id="Vector_30" d="M100.893 52.1964C99.1406 52.0325 97.4134 51.6651 95.7461 51.1016" stroke="#3D747D" stroke-linecap="round" stroke-linejoin="round"/>
<path id="Vector_31" d="M69.2188 55.1562C69.7857 58.9841 73.6505 63.2622 74.7482 64.3159C76.1515 65.7794 77.9719 66.7747 79.9613 67.1661" stroke="#3D747D" stroke-linecap="round" stroke-linejoin="round"/>
<path id="Vector_32" d="M84.8023 62.1903C83.2843 62.9688 80.7252 62.4926 77.7814 59.775C76.4219 58.5182 72.291 53.7002 72.423 49.9297" stroke="#3D747D" stroke-linecap="round" stroke-linejoin="round"/>
<path id="Vector_33" d="M66.8945 60.4062C67.6465 63.2307 69.955 66.2541 70.8934 67.2686C72.1546 68.6967 73.7195 69.8242 75.4732 70.5686" stroke="#3D747D" stroke-linecap="round" stroke-linejoin="round"/>
<path id="Vector_34" d="M119.238 55.6289L135.643 69.7901" stroke="#3D747D" stroke-linecap="round" stroke-linejoin="round"/>
<path id="Vector_35" d="M92.8027 87.7266L108.231 101.215" stroke="#3D747D" stroke-linecap="round" stroke-linejoin="round"/>
</g>
<g id="elements">
<path id="Vector_36" d="M93.5422 112.523C93.8792 112.523 94.2088 112.623 94.4892 112.81C94.7696 112.997 94.9881 113.263 95.1173 113.574C95.2464 113.886 95.2803 114.228 95.2147 114.559C95.1491 114.89 94.9868 115.193 94.7485 115.432C94.5103 115.67 94.2066 115.832 93.876 115.898C93.5455 115.964 93.2028 115.93 92.8914 115.801C92.58 115.672 92.3139 115.454 92.1267 115.173C91.9396 114.893 91.8397 114.564 91.8398 114.226C91.8409 113.775 92.0206 113.343 92.3396 113.024C92.6586 112.705 93.091 112.525 93.5422 112.523Z" stroke="#3D747D" stroke-linecap="round" stroke-linejoin="round"/>
<path id="Vector_37" d="M56.0875 16.9336L56.0742 28.4415" stroke="#3D747D" stroke-linecap="round" stroke-linejoin="round"/>
<path id="Vector_38" d="M61.8421 22.7001L50.3203 22.6875" stroke="#3D747D" stroke-linecap="round" stroke-linejoin="round"/>
<path id="Vector_39" d="M122.077 35.8984L123.252 38.2606L125.852 38.6433L123.964 40.4776L124.413 43.0778L122.077 41.8503L119.754 43.0778L120.19 40.4776L118.303 38.6433L120.916 38.2606L122.077 35.8984Z" stroke="#3D747D" stroke-linecap="round" stroke-linejoin="round"/>
</g>
</g>
</g>
</svg>
