<svg width="44" height="36" viewBox="0 0 44 36" fill="none" xmlns="http://www.w3.org/2000/svg">
<path id="&#226;&#128;&#156;" d="M44 -0.000782013V11.5696C44 16.0239 43.2886 20.1523 41.8657 23.9548C40.3333 27.7572 37.7612 31.5054 34.1493 35.1992L27.7463 30.4733C30.1542 27.8659 31.9055 25.4214 33 23.14C34.0945 20.9671 34.7512 18.7943 34.9701 16.6214H27.2537V-0.000782013H44ZM16.7463 -0.000782013V11.5696C16.7463 16.0239 16.0348 20.1523 14.6119 23.9548C13.0796 27.7572 10.5075 31.5054 6.89553 35.1992L0.492542 30.4733C2.9005 27.8659 4.65174 25.4214 5.74627 23.14C6.8408 20.9671 7.49751 18.7943 7.71642 16.6214H0V-0.000782013H16.7463Z" fill="#43B9CE" fill-opacity="0.2"/>
</svg>
