<svg width="140" height="140" viewBox="0 0 140 140" fill="none" xmlns="http://www.w3.org/2000/svg">
<g id="communication-multilingual-communication-customer-support-01" clip-path="url(#clip0_205_15300)">
<g id="Group">
<g id="Group_2">
<path id="Vector" d="M51.3293 50.7371C50.9483 52.0814 50.7163 53.4635 50.6376 54.8585H43.116C41.5679 53.2948 40.1251 51.6303 38.7969 49.8761C39.5037 49.2031 40.3831 48.739 41.3375 48.5352C44.8506 50.2572 47.3348 50.977 51.3293 50.7371Z" fill="#ECF7FA"/>
<path id="Vector_2" d="M90.9065 101.223V89.3669L88.8599 94.8293C84.569 93.1073 80.5047 90.9329 76.3401 88.8306C74.7452 88.0261 73.8701 88.0409 72.5856 87.4897C71.9913 89.8758 68.4218 89.3112 63.5225 87.3203C61.2758 87.859 59.1872 88.9181 57.4249 90.4122C55.4244 92.2508 53.3881 98.5987 51.7791 103.369C48.4445 100.025 45.2803 96.5152 42.2984 92.8533C37.3026 94.157 36.0426 97.9167 35.6504 98.387L37.2595 100.349C40.8996 104.753 44.3421 108.785 47.3797 111.387C52.0398 115.377 56.5261 114.73 58.3892 108.973L60.0406 103.595C60.0097 105.502 59.8777 107.405 59.6454 109.298C64.9808 110.737 69.7092 111.229 74.0848 110.653C75.1991 105.021 76.823 104.033 77.3735 99.5444L88.2842 104.061C89.7207 104.649 91.3288 104.659 92.7726 104.089C92.217 103.844 91.7446 103.443 91.4133 102.934C91.0819 102.425 90.9058 101.831 90.9065 101.223Z" fill="#ECF7FA"/>
<path id="Vector_3" d="M36.8757 67.5041C36.8754 70.0084 36.3198 72.4816 35.249 74.7455C34.1781 77.0094 32.6186 79.0076 30.6826 80.5964C28.7467 82.1852 26.4826 83.3249 24.0533 83.9336C21.624 84.5422 19.09 84.6047 16.6337 84.1163C12.5097 83.2961 8.83818 80.9713 6.33336 77.594C3.82853 74.2167 2.66946 70.0285 3.08159 65.8439C3.49373 61.6594 5.4476 57.7777 8.56317 54.954C11.6787 52.1303 15.7332 50.5663 19.938 50.5664C22.1625 50.5656 24.3654 51.0032 26.4207 51.8541C28.476 52.705 30.3435 53.9526 31.9165 55.5256C33.4894 57.0986 34.737 58.9661 35.588 61.0214C36.4389 63.0767 36.8764 65.2796 36.8757 67.5041Z" fill="#ECF7FA"/>
<path id="Vector_4" d="M118.064 48.8037C118.064 51.9259 116.824 54.9203 114.616 57.128C112.409 59.3358 109.414 60.5761 106.292 60.5761C103.17 60.5761 100.175 59.3358 97.9676 57.128C95.7598 54.9203 94.5195 51.9259 94.5195 48.8037C94.5195 45.6814 95.7598 42.6871 97.9676 40.4793C100.175 38.2716 103.17 37.0312 106.292 37.0312C109.414 37.0312 112.409 38.2716 114.616 40.4793C116.824 42.6871 118.064 45.6814 118.064 48.8037Z" fill="#ECF7FA"/>
</g>
<g id="Group_3">
<path id="Vector_5" d="M99.4883 114.931H104.527L105.685 104.359H104.64L103.765 112.856C103.729 113.183 103.574 113.485 103.329 113.705C103.084 113.924 102.767 114.045 102.438 114.045H100.378C100.261 114.044 100.145 114.066 100.037 114.111C99.9294 114.155 99.8314 114.22 99.749 114.303C99.666 114.385 99.6002 114.483 99.5555 114.59C99.5107 114.698 99.4879 114.814 99.4883 114.931Z" fill="#43B9CE"/>
<path id="Vector_6" d="M70.2579 81.4799C70.2924 81.6386 70.3877 81.7775 70.5234 81.8667C70.6591 81.956 70.8243 81.9886 70.9837 81.9575C71.1429 81.9255 71.2832 81.8323 71.3744 81.698C71.4657 81.5637 71.5006 81.399 71.4718 81.2392C71.4373 81.0804 71.342 80.9416 71.2063 80.8523C71.0707 80.763 70.9054 80.7304 70.746 80.7615C70.5868 80.7935 70.4465 80.8867 70.3553 81.021C70.264 81.1553 70.2291 81.3201 70.2579 81.4799Z" fill="#43B9CE"/>
<path id="Vector_7" d="M93.1122 104.344H94.1522C93.4188 104.343 92.7157 104.051 92.1971 103.533C91.6785 103.014 91.3867 102.311 91.3857 101.577V81.5196C91.3873 80.7865 91.6793 80.0838 92.1978 79.5654C92.7163 79.0471 93.4191 78.7553 94.1522 78.7539H93.1122C92.379 78.7551 91.6761 79.0468 91.1575 79.5652C90.639 80.0836 90.3471 80.7864 90.3457 81.5196V101.577C90.3467 102.311 90.6385 103.014 91.1571 103.533C91.6757 104.051 92.3788 104.343 93.1122 104.344Z" fill="#43B9CE"/>
<path id="Vector_8" d="M49.0281 24.0452C47.7578 21.7297 49.8452 20.5448 50.2984 22.0684C50.4551 22.6115 50.6921 22.9874 51.0071 22.5238C51.8362 21.3032 53.8612 20.03 54.7445 21.1376C53.8976 18.9914 44.6666 14.0059 43.6756 28.9141C43.6756 28.9141 37.0699 26.5569 33.88 29.7899C30.9018 32.7815 32.9767 36.663 32.9767 36.663C35.2722 34.7535 37.8187 33.1678 40.5451 31.9502C43.8339 30.5246 45.4712 30.7512 46.4451 30.483C48.153 30.2282 49.1975 24.3572 49.0281 24.0452Z" fill="#43B9CE"/>
<path id="Vector_9" d="M45.5566 114.938V115.833C45.5566 117.35 45.9296 118.843 46.6435 120.181H128.678C129.392 118.858 129.765 117.379 129.765 115.876V114.938H45.5566Z" fill="#43B9CE"/>
<path id="Vector_10" d="M49.9043 27.6328L50.5677 29.8072C50.5049 29.2879 50.5972 28.7617 50.8329 28.2947C50.5005 28.108 50.1892 27.8861 49.9043 27.6328Z" fill="#43B9CE"/>
<path id="Vector_11" d="M69.7768 84.6704C69.6147 84.0673 69.534 83.4452 69.5368 82.8207C68.9842 82.6192 68.4465 82.3789 67.9277 82.1016L69.7768 84.6704Z" fill="#43B9CE"/>
<path id="Vector_12" d="M14.5605 98.5709C14.5603 98.6631 14.5875 98.7533 14.6386 98.83C14.6897 98.9068 14.7625 98.9666 14.8477 99.0018C14.9329 99.0371 15.0266 99.0462 15.1171 99.0281C15.2075 99.01 15.2904 98.9654 15.3554 98.9C15.4427 98.8127 15.4917 98.6943 15.4917 98.5709C15.4917 98.4475 15.4427 98.3291 15.3554 98.2418C15.2681 98.1545 15.1498 98.1055 15.0263 98.1055C14.9029 98.1055 14.7845 98.1545 14.6972 98.2418C14.6539 98.285 14.6196 98.3363 14.5961 98.3927C14.5727 98.4492 14.5606 98.5097 14.5605 98.5709Z" fill="#43B9CE"/>
<path id="Vector_13" d="M41.7305 45.106L42.4504 40.3516L41.293 41.1851C41.5277 42.4807 41.6741 43.7903 41.7305 45.106Z" fill="#43B9CE"/>
<path id="Vector_14" d="M77.5858 96.0625C77.5923 97.2272 77.5311 98.3913 77.4023 99.5488L82.0884 101.497C79.1919 99.8445 77.5858 96.0766 77.5858 96.0625Z" fill="#43B9CE"/>
<path id="Vector_15" d="M62.0279 76.6952C63.2842 77.2153 63.7782 77.4433 63.9594 77.5273C64.1006 76.9634 64.3829 76.5675 64.7766 76.4835L65.4964 76.3424C65.5374 75.5983 65.8266 74.8894 66.3179 74.329C66.8092 73.7687 67.4741 73.3892 68.2065 73.2513C68.626 73.1397 69.065 73.1223 69.492 73.2003C69.919 73.2782 70.3235 73.4496 70.6765 73.7022C69.8902 71.8558 68.8601 70.1231 67.6137 68.5503C65.2142 65.587 65.6822 70.6824 65.8917 71.1051C64.8384 70.0931 63.6275 69.2591 62.3065 68.6357C60.147 67.7317 59.3001 69.7367 63.1393 73.674C62.4353 73.4883 61.7068 73.4131 60.9797 73.4511C58.838 73.4771 59.0921 75.4532 62.0279 76.6952Z" fill="#43B9CE"/>
<path id="Vector_16" d="M70.9068 74.2841C70.5768 73.9307 70.1565 73.6742 69.6914 73.5422C69.2262 73.4102 68.7338 73.4078 68.2674 73.5352C67.6093 73.6577 67.0096 73.9931 66.5607 74.4897C66.1119 74.9864 65.8387 75.6168 65.7832 76.2839C66.2832 76.1821 66.5967 76.0425 66.9666 76.2096C68.3576 75.7268 69.7972 75.3975 71.2597 75.2275C71.175 74.9749 71.0621 74.6644 70.9068 74.2841Z" fill="#43B9CE"/>
</g>
<g id="Group_4">
<path id="Vector_17" d="M50.1424 101.713L47.3938 88.3326C47.3125 87.9421 47.3169 87.5387 47.4067 87.1502C47.4964 86.7616 47.6693 86.3971 47.9135 86.0818C48.1577 85.7666 48.4673 85.508 48.8211 85.3239C49.1748 85.1398 49.5643 85.0346 49.9626 85.0156L66.4627 84.1836" stroke="#3D747D" stroke-linecap="round" stroke-linejoin="round"/>
<path id="Vector_18" d="M69.6367 84.0288L70.4836 83.9731C71.3026 83.9323 72.1097 84.1818 72.7628 84.6775C73.416 85.1732 73.8735 85.8834 74.0546 86.6831C74.1512 87.1065 74.2522 87.5745 74.3652 88.0663" stroke="#3D747D" stroke-linecap="round" stroke-linejoin="round"/>
<path id="Vector_19" d="M80.436 114.853C80.3654 114.613 78.9101 108.082 77.2305 100.672" stroke="#3D747D" stroke-linecap="round" stroke-linejoin="round"/>
<path id="Vector_20" d="M71.2697 75.2281C70.4357 72.8126 69.1997 70.5552 67.614 68.5511C65.216 65.5855 65.6773 70.6839 65.892 71.1059C66.1008 71.5167 64.7896 69.6706 62.3069 68.6366C60.1459 67.7362 59.3005 69.7368 63.1397 73.6748C62.4352 73.4921 61.7071 73.4169 60.9801 73.4519C58.8347 73.4876 59.091 75.4651 62.0246 76.6983C63.6634 77.3869 63.9561 77.5303 63.9561 77.5303" stroke="#3D747D" stroke-linecap="round" stroke-linejoin="round"/>
<path id="Vector_21" d="M97.1035 78.7504C97.2588 78.5951 99.4755 77.0729 100.224 76.6614C101.27 76.0857 102.426 75.4728 103.567 74.9112C104.569 74.4171 109.129 72.2049 110.13 71.933C112.856 71.1901 112.85 71.9263 110.61 73.2315C109.08 74.1177 107.659 75.179 106.375 76.3939C105.644 77.1382 104.951 77.9201 104.301 78.7362" stroke="#3D747D" stroke-linecap="round" stroke-linejoin="round"/>
<path id="Vector_22" d="M97.3457 78.5682L99.5194 75.7594C100.77 74.021 101.936 72.1126 102.032 71.9202C103.655 69.309 103.565 70.5511 103.443 71.652C103.355 72.4565 102.173 75.3359 103.556 74.9125" stroke="#3D747D" stroke-linecap="round" stroke-linejoin="round"/>
<path id="Vector_23" d="M104.57 78.7496C105.926 77.7837 107.34 76.9022 108.805 76.1102C109.779 75.5463 111.335 74.9312 112.432 74.3317C112.687 74.1921 112.715 73.6854 110.95 74.0346C110.301 74.1624 109.172 74.3874 108.621 74.5546" stroke="#3D747D" stroke-linecap="round" stroke-linejoin="round"/>
<path id="Vector_24" d="M105.021 78.7418C105.707 78.3659 106.414 78.0315 107.139 77.7404C108.127 77.3585 109.936 76.9559 111.006 76.5688C111.275 76.4715 111.388 76.0042 109.595 76.0325C109.454 76.0325 109.199 76.0466 108.889 76.0607" stroke="#3D747D" stroke-linecap="round" stroke-linejoin="round"/>
<path id="Vector_25" d="M36.5774 96.8622C35.5798 95.7224 34.4736 94.6825 33.2746 93.757C32.1763 92.9562 30.9929 92.2793 29.7459 91.7386C27.9117 90.9452 27.8144 90.619 29.9858 90.6941C30.8223 90.7134 31.6543 90.8174 32.47 91.0046C35.1398 91.5538 37.7326 92.427 40.1908 93.6047" stroke="#3D747D" stroke-linecap="round" stroke-linejoin="round"/>
<path id="Vector_26" d="M34.5178 91.51C35.9857 91.7641 34.3603 89.239 33.9391 87.968C33.584 86.8952 33.5892 85.6784 35.5481 88.1091C37.173 89.9395 38.9127 91.6647 40.7565 93.2743" stroke="#3D747D" stroke-linecap="round" stroke-linejoin="round"/>
<path id="Vector_27" d="M30.355 92.0052C29.3235 91.792 28.2746 91.6739 27.2215 91.6523C25.2031 91.6523 25.3458 92.2117 25.6548 92.3016C26.8895 92.6619 28.9153 93.092 30.0304 93.4731C31.9427 94.147 33.8112 94.9395 35.625 95.8459" stroke="#3D747D" stroke-linecap="round" stroke-linejoin="round"/>
<path id="Vector_28" d="M28.2229 92.9805C27.87 93.0087 27.8277 93.0087 27.6724 93.0228C25.6399 93.2063 25.8234 93.7575 26.148 93.8273C27.4176 94.0992 29.3246 94.2894 30.5236 94.4625C31.9249 94.553 33.3048 94.8535 34.6168 95.354" stroke="#3D747D" stroke-linecap="round" stroke-linejoin="round"/>
<path id="Vector_29" d="M66.9648 76.2008C68.3601 75.7144 69.8053 75.385 71.2735 75.2188C73.8736 82.2471 72.6003 84.5902 67.9425 82.0919L69.7774 84.6615" stroke="#3D747D" stroke-linecap="round" stroke-linejoin="round"/>
<path id="Vector_30" d="M71.3145 75.3084L71.6532 75.2237C72.2319 75.1108 73.0446 76.0855 73.3187 77.4398C73.5817 78.739 73.2623 79.9098 72.5989 80.1357" stroke="#3D747D" stroke-linecap="round" stroke-linejoin="round"/>
<path id="Vector_31" d="M68.1582 80.3906C68.8487 80.858 69.6398 81.1558 70.4671 81.2598" stroke="#3D747D" stroke-linecap="round" stroke-linejoin="round"/>
<path id="Vector_32" d="M66.6021 78.666C66.7974 79.6258 66.7053 81.2141 65.7975 81.4042C65.0658 81.558 64.2613 80.5715 63.9908 79.2165C63.3542 76.0273 65.9327 75.3795 66.6021 78.666Z" stroke="#3D747D" stroke-linecap="round" stroke-linejoin="round"/>
<path id="Vector_33" d="M65.7963 81.4065L67.4618 81.0544C68.1958 80.9133 68.5486 79.6853 68.279 78.3303C68.0093 76.9753 67.2063 76.0014 66.4723 76.1425L64.7637 76.5184" stroke="#3D747D" stroke-linecap="round" stroke-linejoin="round"/>
<path id="Vector_34" d="M51.7383 103.335C53.3615 98.5503 55.4111 92.2581 57.4265 90.4091C60.1261 87.9286 63.3695 87.5022 64.1451 87.1055C64.8055 86.8277 65.3802 86.3796 65.8107 85.8069C66.5385 84.3815 66.8793 82.7899 66.7987 81.1914" stroke="#3D747D" stroke-linecap="round" stroke-linejoin="round"/>
<path id="Vector_35" d="M69.5371 82.8164C69.5795 84.4255 69.7228 86.8592 74.0256 87.9824C74.8257 88.1874 75.6012 88.4757 76.3404 88.8434C80.9812 91.1812 85.4912 93.6231 90.3422 95.4261" stroke="#3D747D" stroke-linecap="round" stroke-linejoin="round"/>
<path id="Vector_36" d="M88.8594 94.844L90.354 90.8555" stroke="#3D747D" stroke-linecap="round" stroke-linejoin="round"/>
<path id="Vector_37" d="M52.7691 104.357C49.0657 100.73 45.5737 96.894 42.3101 92.8672C40.8611 93.2388 39.5128 93.928 38.363 94.885C37.2132 95.8419 36.2906 97.0426 35.6621 98.4002C37.8633 101.113 42.868 107.528 47.3914 111.401C52.0515 115.391 56.5378 114.744 58.4009 108.987L60.9557 100.702" stroke="#3D747D" stroke-linecap="round" stroke-linejoin="round"/>
<path id="Vector_38" d="M45.5566 109.633V115.829C45.5568 118.262 46.5235 120.596 48.244 122.316C49.9645 124.037 52.298 125.003 54.7312 125.004H120.605C121.809 125.004 123.003 124.767 124.116 124.306C125.229 123.845 126.24 123.169 127.092 122.317C127.944 121.465 128.62 120.454 129.081 119.34C129.543 118.227 129.78 117.034 129.779 115.829V78.5105C129.78 77.3056 129.543 76.1124 129.081 74.9992C128.62 73.886 127.944 72.8747 127.092 72.0229C126.24 71.1707 125.229 70.4948 124.116 70.0337C123.003 69.5727 121.809 69.3356 120.605 69.3359H68.3096" stroke="#3D747D" stroke-linecap="round" stroke-linejoin="round"/>
<path id="Vector_39" d="M60.4759 69.3359H54.7312C53.5263 69.3356 52.3331 69.5728 51.2199 70.0337C50.1067 70.4947 49.0951 71.1705 48.2432 72.0225C47.3912 72.8745 46.7154 73.886 46.2544 74.9992C45.7935 76.1124 45.5563 77.3056 45.5566 78.5105V96.7185" stroke="#3D747D" stroke-linecap="round" stroke-linejoin="round"/>
<path id="Vector_40" d="M80.1508 50.1836C79.7509 51.5359 78.9247 52.7227 77.7953 53.5671C76.666 54.4116 75.294 54.8685 73.8838 54.8697H43.1152" stroke="#3D747D" stroke-linecap="round" stroke-linejoin="round"/>
<path id="Vector_41" d="M80.4197 42.2369V20.5426C80.4212 19.2487 80.0386 17.9836 79.3203 16.9075C78.6021 15.8314 77.5805 14.9927 76.3852 14.4977C75.5917 14.169 74.7412 13.9999 73.8824 14H25.1183C24.2605 13.9984 23.4109 14.1662 22.6181 14.4938C21.8253 14.8213 21.105 15.3021 20.4985 15.9087C19.892 16.5152 19.4111 17.2355 19.0836 18.0283C18.7561 18.821 18.5883 19.6707 18.5899 20.5284V48.3337C18.5926 49.1041 18.7288 49.8682 18.9925 50.592" stroke="#3D747D" stroke-linecap="round" stroke-linejoin="round"/>
<path id="Vector_42" d="M36.8753 67.5016C36.875 71.1353 35.7062 74.6725 33.5413 77.591C31.3765 80.5094 28.3305 82.6543 24.8532 83.7088C21.3759 84.7634 17.6517 84.6717 14.2305 83.4473C10.8093 82.223 7.87253 79.9308 5.85395 76.9094C3.83536 73.8879 2.84196 70.2974 3.02046 66.6681C3.19895 63.0388 4.53988 59.5631 6.84521 56.7544C9.15054 53.9456 12.298 51.9527 15.8229 51.0699C19.3477 50.1872 23.063 50.4614 26.42 51.8521C29.5153 53.1338 32.1609 55.3048 34.022 58.0905C35.8831 60.8762 36.8761 64.1514 36.8753 67.5016Z" stroke="#3D747D" stroke-linecap="round" stroke-linejoin="round"/>
<path id="Vector_43" d="M118.064 48.801C118.065 50.542 117.679 52.2615 116.935 53.8355C116.191 55.4095 115.107 56.7989 113.762 57.9035C112.416 59.0082 110.842 59.8007 109.153 60.2238C107.464 60.647 105.703 60.6903 103.995 60.3506C102.288 60.011 100.677 59.2968 99.2785 58.2596C97.8802 57.2224 96.7293 55.888 95.9088 54.3524C95.0883 52.8169 94.6186 51.1185 94.5336 49.3796C94.4485 47.6406 94.7502 45.9045 95.4169 44.2962C96.1581 42.5081 97.3288 40.9303 98.8252 39.7026C100.322 38.4748 102.098 37.635 103.996 37.2574C105.895 36.8798 107.857 36.9762 109.709 37.5379C111.562 38.0996 113.247 39.1094 114.616 40.4778C116.823 42.6855 118.064 45.6792 118.064 48.801Z" stroke="#3D747D" stroke-linecap="round" stroke-linejoin="round"/>
<path id="Vector_44" d="M59.6716 109.293C59.5267 110.026 57.4333 112.106 55.6504 114.986" stroke="#3D747D" stroke-linecap="round" stroke-linejoin="round"/>
<path id="Vector_45" d="M53.3474 124.894C52.9916 123.253 53.0696 121.662 53.4128 120.16" stroke="#3D747D" stroke-linecap="round" stroke-linejoin="round"/>
<path id="Vector_46" d="M87.3906 125.006C86.8193 123.811 85.9748 122.766 84.9254 121.957C83.876 121.148 82.6511 120.597 81.3495 120.348L80.5605 120.168" stroke="#3D747D" stroke-linecap="round" stroke-linejoin="round"/>
<path id="Vector_47" d="M60.1639 103.271C60.1264 105.288 59.9613 107.301 59.6699 109.298C65.0053 110.738 69.7337 111.229 74.1093 110.653C75.2236 105.033 76.8498 104.027 77.3965 99.5586L88.3087 104.062C89.6913 104.629 91.2349 104.664 92.6419 104.161" stroke="#3D747D" stroke-linecap="round" stroke-linejoin="round"/>
<path id="Vector_48" d="M94.1678 78.75H93.1122C92.3787 78.7504 91.6754 79.0419 91.1567 79.5605C90.638 80.079 90.3463 80.7823 90.3457 81.5157V101.588C90.3465 102.321 90.6382 103.024 91.1569 103.543C91.6756 104.061 92.3788 104.353 93.1122 104.353H94.1708" stroke="#3D747D" stroke-linecap="round" stroke-linejoin="round"/>
<path id="Vector_49" d="M121.606 78.75H94.1532C93.4195 78.75 92.7158 79.0415 92.197 79.5603C91.6782 80.0791 91.3867 80.7828 91.3867 81.5165V101.588C91.3867 102.321 91.6782 103.025 92.197 103.544C92.7158 104.063 93.4195 104.354 94.1532 104.354H121.606C122.34 104.354 123.044 104.063 123.563 103.544C124.081 103.025 124.373 102.321 124.373 101.588V81.5165C124.373 80.7828 124.081 80.0791 123.563 79.5603C123.044 79.0415 122.34 78.75 121.606 78.75Z" stroke="#3D747D" stroke-linecap="round" stroke-linejoin="round"/>
<path id="Vector_50" d="M104.641 104.352L103.749 112.848C103.714 113.175 103.559 113.477 103.314 113.697C103.069 113.917 102.751 114.037 102.422 114.036H100.362C100.245 114.037 100.131 114.061 100.024 114.106C99.9169 114.151 99.8201 114.217 99.739 114.3C99.6574 114.383 99.5931 114.481 99.5497 114.589C99.5063 114.696 99.4848 114.812 99.4864 114.928H104.511L105.669 104.357L104.641 104.352Z" stroke="#3D747D" stroke-linecap="round" stroke-linejoin="round"/>
<path id="Vector_51" d="M104.514 114.923H112.686L111.67 104.352H105.671L104.514 114.923Z" stroke="#3D747D" stroke-linecap="round" stroke-linejoin="round"/>
<path id="Vector_52" d="M106.08 92.2151C106.116 92.65 106.245 93.072 106.46 93.4516C106.675 93.8313 106.97 94.1594 107.325 94.4133C107.68 94.6671 108.086 94.8405 108.515 94.9213C108.943 95.0022 109.385 94.9885 109.808 94.8813C110.517 94.7021 111.137 94.2697 111.55 93.6655C111.964 93.0613 112.142 92.327 112.052 91.6005C111.961 90.8741 111.609 90.2057 111.06 89.721C110.512 89.2364 109.805 88.9688 109.073 88.9688C108.246 89.0039 107.467 89.3653 106.906 89.9738C106.345 90.5823 106.048 91.3882 106.08 92.2151Z" stroke="#3D747D" stroke-linecap="round" stroke-linejoin="round"/>
<path id="Vector_53" d="M107.266 87.5974C107.744 87.9562 108.334 88.1359 108.931 88.1055C108.918 87.6544 108.763 87.2189 108.489 86.8606C108.215 86.5022 107.835 86.2392 107.403 86.1086C107.117 86.0215 106.815 85.9952 106.518 86.0314C106.581 86.6234 106.844 87.1761 107.266 87.5974Z" stroke="#3D747D" stroke-linecap="round" stroke-linejoin="round"/>
<path id="Vector_54" d="M74.1094 110.648C74.4199 112.509 75.3901 113.867 76.9063 114.934" stroke="#3D747D" stroke-linecap="round" stroke-linejoin="round"/>
<path id="Vector_55" d="M95.6212 125.004C94.6697 123.036 93.1885 121.372 91.3438 120.199" stroke="#3D747D" stroke-linecap="round" stroke-linejoin="round"/>
<path id="Vector_56" d="M50.5677 29.8063L49.9043 27.6319C51.1323 28.7046 53.927 30.3144 54.9856 24.5556C55.331 22.6828 55.1483 21.6197 54.7204 21.1094" stroke="#3D747D" stroke-linecap="round" stroke-linejoin="round"/>
<path id="Vector_57" d="M55.4067 37.518C55.9431 41.0615 55.0539 45.4928 51.3135 50.7412C47.319 50.9641 44.8348 50.2472 41.3344 48.5394C42.0401 46.6079 41.6872 43.3875 41.292 41.1715L35.6603 45.1942C37.8471 48.8947 40.5039 52.2964 43.5645 55.3144C43.0458 56.8588 42.0916 58.2203 40.8169 59.2349C39.5423 60.2495 38.0015 60.874 36.3801 61.0331C35.8185 60.3229 27.6141 50.0987 27.5443 50.0088C26.5892 48.8198 26.0864 47.3308 26.1251 45.8062C26.1639 44.2815 26.7417 42.82 27.756 41.6811C29.3582 39.8678 31.1047 38.1873 32.9785 36.6562" stroke="#3D747D" stroke-linecap="round" stroke-linejoin="round"/>
<path id="Vector_58" d="M41.293 41.1773L42.4504 40.3438L41.7305 45.1004" stroke="#3D747D" stroke-linecap="round" stroke-linejoin="round"/>
<path id="Vector_59" d="M41.3492 48.5312C40.3967 48.7383 39.5185 49.2005 38.8086 49.8684" stroke="#3D747D" stroke-linecap="round" stroke-linejoin="round"/>
<path id="Vector_60" d="M83.2726 48.9481C83.7443 48.7803 84.1641 48.4794 84.0155 48.0039C83.8156 47.3695 82.7526 46.5888 81.434 46.4989C80.4601 46.4246 79.9237 46.9788 81.2505 47.6838" stroke="#3D747D" stroke-linecap="round" stroke-linejoin="round"/>
<path id="Vector_61" d="M83.8767 47.7251C84.0323 47.6294 84.148 47.4807 84.2026 47.3063C84.2572 47.132 84.247 46.9439 84.1739 46.7765C83.9708 46.3838 83.6672 46.0519 83.2941 45.8147C82.9211 45.5774 82.4918 45.4433 82.05 45.4259C80.9357 45.3071 80.8562 45.8783 81.8011 46.5402" stroke="#3D747D" stroke-linecap="round" stroke-linejoin="round"/>
<path id="Vector_62" d="M78.543 45.7233C80.0956 46.273 81.0413 43.8594 81.0413 43.8594" stroke="#3D747D" stroke-linecap="round" stroke-linejoin="round"/>
<path id="Vector_63" d="M75.8477 43.2934C76.3981 43.1664 83.2326 41.4407 83.2995 41.7936C83.3738 42.188 81.4081 43.6003 81.0411 43.8543C85.2473 43.9108 88.6348 45.5199 87.9856 45.5771C86.7152 45.6885 83.3418 45.4211 81.8598 45.4069" stroke="#3D747D" stroke-linecap="round" stroke-linejoin="round"/>
<path id="Vector_64" d="M77.2012 50.5081C78.71 50.1991 80.2485 50.0624 81.7885 50.0995C84.2236 49.9509 83.5662 47.9533 80.9795 47.6421C80.2618 47.5552 80.1623 48.5469 81.8709 49.1397" stroke="#3D747D" stroke-linecap="round" stroke-linejoin="round"/>
<path id="Vector_65" d="M80.998 49.5316C81.1199 49.3072 81.1645 49.0487 81.1251 48.7969" stroke="#3D747D" stroke-linecap="round" stroke-linejoin="round"/>
<path id="Vector_66" d="M50.831 28.2891C50.673 28.5583 50.5732 28.8577 50.5378 29.1679C50.5025 29.4781 50.5324 29.7923 50.6258 30.0902C50.7191 30.3881 50.8738 30.6632 51.0798 30.8978C51.2858 31.1324 51.5386 31.3212 51.822 31.4522C54.9555 32.9209 55.8336 34.5575 57.7784 37.2682C60.221 40.6692 63.4808 44.5789 63.4808 44.5789C67.5701 44.567 71.6424 44.0505 75.6053 43.0412C76.6085 44.0758 77.2771 45.3884 77.5241 46.8082C77.7711 48.228 77.585 49.6893 76.99 51.0019C72.5518 52.1922 67.9785 52.8042 63.3835 52.8227C62.3699 52.8397 61.3631 52.6536 60.4225 52.2755C59.482 51.8973 58.6266 51.3347 57.9069 50.6208C56.4834 49.2079 55.1877 47.6719 54.0351 46.0305" stroke="#3D747D" stroke-linecap="round" stroke-linejoin="round"/>
<path id="Vector_67" d="M42.8878 56.8984C43.6727 57.5269 44.5248 58.0665 45.4284 58.5075C47.9416 59.7333 46.7545 59.9383 45.7531 59.7778C44.7361 59.6137 42.4502 59.0298 42.4784 59.792L43.283 60.8922C44.3025 62.4707 45.1765 64.1387 45.8942 65.8754C46.7247 68.318 46.0584 68.3626 44.7368 66.3954C41.9035 62.1818 40.2342 61.1165 39.1191 60.2696" stroke="#3D747D" stroke-linecap="round" stroke-linejoin="round"/>
<path id="Vector_68" d="M43.2832 60.8945C44.5917 62.4585 46.0263 63.9125 47.5726 65.2419C48.8035 66.3116 48.4039 66.5189 48.1513 66.4557C47.2646 66.1454 46.421 65.7233 45.6411 65.1995" stroke="#3D747D" stroke-linecap="round" stroke-linejoin="round"/>
<path id="Vector_69" d="M62.479 87.6406C62.0555 90.5059 70.1432 92.0444 70.2138 89.0662C72.204 91.2822 75.408 89.8834 73.7425 87.8947" stroke="#3D747D" stroke-linecap="round" stroke-linejoin="round"/>
<path id="Vector_70" d="M72.5855 87.4905C72.0209 89.89 68.4781 89.312 63.5098 87.3359" stroke="#3D747D" stroke-linecap="round" stroke-linejoin="round"/>
<path id="Vector_71" d="M51.3283 50.7344C50.9474 52.0787 50.7155 53.4608 50.6367 54.8559" stroke="#3D747D" stroke-linecap="round" stroke-linejoin="round"/>
<path id="Vector_72" d="M43.6795 28.9252C43.6795 28.9252 37.0738 26.5665 33.8839 29.801C30.9057 32.7926 32.9806 36.6749 32.9806 36.6749C35.2749 34.7646 37.8205 33.1781 40.5461 31.9598C43.8348 30.5343 45.4721 30.7608 46.446 30.4919C48.1546 30.2378 49.1947 24.3669 49.029 24.0563C47.7587 21.7408 49.8462 20.5552 50.2993 22.0803C50.4657 22.6575 50.6827 22.9896 51.0244 22.4963C51.8564 21.2943 53.8317 20.0559 54.7202 21.1041C53.7396 18.9297 44.6765 14.1508 43.6795 28.9252Z" stroke="#3D747D" stroke-linecap="round" stroke-linejoin="round"/>
<path id="Vector_73" d="M94.1602 19.9219V27.2192" stroke="#3D747D" stroke-linecap="round" stroke-linejoin="round"/>
<path id="Vector_74" d="M97.809 23.5703H90.5117" stroke="#3D747D" stroke-linecap="round" stroke-linejoin="round"/>
<path id="Vector_75" d="M130.739 59.8793C130.755 60.0678 130.714 60.2569 130.622 60.4223C130.53 60.5877 130.391 60.7219 130.223 60.8079C130.054 60.894 129.864 60.9283 129.676 60.9064C129.489 60.8846 129.312 60.8077 129.167 60.6853C129.023 60.5629 128.919 60.4005 128.867 60.2188C128.815 60.037 128.818 59.8439 128.876 59.6638C128.924 59.5146 129.009 59.3797 129.122 59.2709C129.235 59.1621 129.373 59.0828 129.524 59.04C129.675 58.9973 129.834 58.9924 129.987 59.0258C130.14 59.0592 130.283 59.1298 130.402 59.2315C130.595 59.3951 130.716 59.6276 130.739 59.8793Z" stroke="#3D747D" stroke-linecap="round" stroke-linejoin="round"/>
<path id="Vector_76" d="M15.0267 96.6077C15.0267 96.0134 15.2496 95.5915 15.9865 94.6176C16.4844 94.109 16.7803 93.4368 16.8193 92.7262C16.8301 92.4999 16.7935 92.2739 16.7117 92.0626C16.63 91.8513 16.5051 91.6594 16.3449 91.4993C16.1846 91.3391 15.9927 91.2142 15.7814 91.1326C15.5701 91.051 15.344 91.0144 15.1177 91.0253C14.8915 91.0362 14.67 91.0942 14.4674 91.1957C14.2649 91.2972 14.0858 91.4399 13.9417 91.6147C13.7976 91.7895 13.6916 91.9925 13.6305 92.2106C13.5694 92.4288 13.5546 92.6573 13.587 92.8815" stroke="#3D747D" stroke-linecap="round" stroke-linejoin="round"/>
<path id="Vector_77" d="M11.2988 61.9961H27.9824" stroke="#3D747D" stroke-linecap="round" stroke-linejoin="round"/>
<path id="Vector_78" d="M15.7882 57.9922C15.7882 57.9922 13.8121 71.7258 27.0376 76.3837" stroke="#3D747D" stroke-linecap="round" stroke-linejoin="round"/>
<path id="Vector_79" d="M23.5368 65.9766C22.3603 69.7699 19.7806 72.9713 16.3242 74.9275" stroke="#3D747D" stroke-linecap="round" stroke-linejoin="round"/>
<path id="Vector_80" d="M19.9238 61.997V59.8516" stroke="#3D747D" stroke-linecap="round" stroke-linejoin="round"/>
<path id="Vector_81" d="M108.296 49.2812H104.076" stroke="#3D747D" stroke-linecap="round" stroke-linejoin="round"/>
<path id="Vector_82" d="M102.354 54.5321L106.179 42.9023L110.018 54.5321" stroke="#3D747D" stroke-linecap="round" stroke-linejoin="round"/>
<path id="Vector_83" d="M34.7871 59.0466C35.53 59.9432 42.1119 54.5061 41.7018 53.4141" stroke="#3D747D" stroke-linecap="round" stroke-linejoin="round"/>
<path id="Vector_84" d="M35.6622 45.2031L34.7871 45.8242" stroke="#3D747D" stroke-linecap="round" stroke-linejoin="round"/>
<path id="Vector_85" d="M63.4824 44.582L64.3152 45.6406" stroke="#3D747D" stroke-linecap="round" stroke-linejoin="round"/>
<path id="Vector_86" d="M46.6426 120.164H128.691" stroke="#3D747D" stroke-linecap="round" stroke-linejoin="round"/>
<path id="Vector_87" d="M129.779 114.934H45.5566" stroke="#3D747D" stroke-linecap="round" stroke-linejoin="round"/>
<path id="Vector_88" d="M41.5332 31.5482C44.215 30.3901 51.5688 35.8814 51.3288 39.3113C51.3288 39.3113 54.1235 33.2702 55.4221 34.0748" stroke="#3D747D" stroke-linecap="round" stroke-linejoin="round"/>
<path id="Vector_89" d="M37.6367 100.81C39.3023 97.8887 41.4521 95.9595 44.0871 95.0234" stroke="#3D747D" stroke-linecap="round" stroke-linejoin="round"/>
<path id="Vector_90" d="M141.777 116.297C142.633 116.728 143.32 117.432 143.732 118.298C144.143 119.164 144.254 120.141 144.049 121.077C143.843 122.013 143.333 122.855 142.597 123.469C141.861 124.082 140.942 124.434 139.984 124.469" stroke="#3D747D" stroke-linecap="round" stroke-linejoin="round"/>
<path id="Vector_91" d="M140.845 125.315L139.984 124.468L140.831 123.621" stroke="#3D747D" stroke-linecap="round" stroke-linejoin="round"/>
<path id="Vector_92" d="M82.0841 101.504C79.1905 99.8389 77.5815 96.0703 77.5815 96.0703C77.5875 97.235 77.5257 98.3991 77.3965 99.5567" stroke="#3D747D" stroke-linecap="round" stroke-linejoin="round"/>
</g>
</g>
</g>
<defs>
<clipPath id="clip0_205_15300">
<rect width="140" height="140" fill="white"/>
</clipPath>
</defs>
</svg>
