<svg width="140" height="140" viewBox="0 0 140 140" fill="none" xmlns="http://www.w3.org/2000/svg">
<g id="hr-human-resources-1">
<g id="hr-human-resources--work-hr-human-resources">
<g id="profile 2">
<path id="Vector" d="M88.1094 106.631V90.3711" stroke="#3D747D" stroke-linecap="round" stroke-linejoin="round"/>
<path id="Vector_2" d="M63.2921 66.4922H16.2754V123.249H70.167" stroke="#3D747D" stroke-linecap="round" stroke-linejoin="round"/>
<g id="Group">
<path id="Vector_3" d="M30.9511 74.0508C28.5814 74.0514 26.2649 74.7545 24.2947 76.0713C22.3244 77.388 20.7887 79.2594 19.8818 81.4487C18.9755 83.6382 18.7387 86.0472 19.2012 88.3712C19.6638 90.6952 20.805 92.8299 22.4806 94.5054C24.1561 96.181 26.2908 97.3222 28.6148 97.7847C30.9388 98.2473 33.3478 98.0105 35.5372 97.1042C38.0994 96.044 40.2145 94.1279 41.522 91.6827C42.8295 89.2375 43.2484 86.4145 42.7074 83.6949C42.1664 80.9754 40.6989 78.5277 38.5551 76.769C36.4113 75.0104 33.724 74.0497 30.9511 74.0508Z" stroke="#3D747D" stroke-linecap="round" stroke-linejoin="round"/>
<path id="Vector_4" d="M39.5056 94.4213C38.3906 93.2835 37.0597 92.3795 35.591 91.7625C34.1222 91.1455 32.5451 90.8279 30.952 90.8281C29.3589 90.8279 27.7818 91.1455 26.313 91.7625C24.8443 92.3795 23.5134 93.2835 22.3984 94.4213C23.5141 95.5581 24.8451 96.4612 26.3138 97.0778C27.7824 97.6944 29.3592 98.0121 30.952 98.0124C32.5449 98.0124 34.1217 97.6947 35.5904 97.0781C37.059 96.4615 38.39 95.5583 39.5056 94.4213Z" stroke="#3D747D" stroke-linecap="round" stroke-linejoin="round"/>
<path id="Vector_5" d="M30.5383 88.2679C30.9846 88.2679 31.4126 88.0906 31.7282 87.775C32.0437 87.4595 32.221 87.0314 32.221 86.5851C32.221 86.1388 32.0437 85.7108 31.7282 85.3952C31.4126 85.0796 30.9846 84.9023 30.5383 84.9023C30.092 84.9023 29.6639 85.0796 29.3483 85.3952C29.0328 85.7108 28.8555 86.1388 28.8555 86.5851C28.8555 87.0314 29.0328 87.4595 29.3483 87.775C29.6639 88.0906 30.092 88.2679 30.5383 88.2679Z" stroke="#3D747D" stroke-linecap="round" stroke-linejoin="round"/>
</g>
</g>
<g id="profile 1">
<path id="Vector_6" d="M88.1086 18.4428V6H16.2754V62.7566H62.2356" stroke="#3D747D" stroke-linecap="round" stroke-linejoin="round"/>
<g id="Group_2">
<g id="Group_3">
<path id="Vector_7" d="M49.5664 21.9766H62.1566" stroke="#3D747D" stroke-linecap="round" stroke-linejoin="round"/>
<path id="Vector_8" d="M49.5664 25.7305H62.1566" stroke="#3D747D" stroke-linecap="round" stroke-linejoin="round"/>
<path id="Vector_9" d="M49.5664 29.5195H62.1566" stroke="#3D747D" stroke-linecap="round" stroke-linejoin="round"/>
</g>
<g id="Group_4">
<path id="Vector_10" d="M30.9509 14.0352C27.7727 14.035 24.7246 15.2973 22.4771 17.5445C20.2297 19.7917 18.967 22.8396 18.9668 26.0178C18.9666 29.196 20.229 32.2441 22.4761 34.4915C24.7233 36.739 27.7713 38.0017 30.9495 38.0019C34.1277 38.0021 37.1757 36.7397 39.4232 34.4925C41.6706 32.2453 42.9333 29.1974 42.9335 26.0192C42.9337 22.841 41.6714 19.7929 39.4242 17.5455C37.177 15.298 34.129 14.0353 30.9509 14.0352Z" stroke="#3D747D" stroke-linecap="round" stroke-linejoin="round"/>
<path id="Vector_11" d="M39.5056 34.4106C38.3906 33.2727 37.0598 32.3686 35.591 31.7515C34.1223 31.1343 32.5451 30.8164 30.952 30.8164C29.3589 30.8164 27.7817 31.1343 26.313 31.7515C24.8442 32.3686 23.5134 33.2727 22.3984 34.4106C23.514 35.5475 24.8451 36.4506 26.3137 37.067C27.7824 37.6835 29.3592 38.001 30.952 38.001C32.5448 38.001 34.1216 37.6835 35.5903 37.067C37.0589 36.4506 38.39 35.5475 39.5056 34.4106Z" stroke="#3D747D" stroke-linecap="round" stroke-linejoin="round"/>
<path id="Vector_12" d="M30.5383 28.2562C30.7592 28.2562 30.9781 28.2127 31.1822 28.1281C31.3864 28.0435 31.5719 27.9196 31.7282 27.7633C31.8844 27.6071 32.0084 27.4215 32.0929 27.2174C32.1775 27.0132 32.221 26.7944 32.221 26.5734C32.221 26.3524 32.1775 26.1336 32.0929 25.9294C32.0084 25.7253 31.8844 25.5398 31.7282 25.3835C31.5719 25.2272 31.3864 25.1033 31.1822 25.0187C30.9781 24.9342 30.7592 24.8906 30.5383 24.8906C30.092 24.8906 29.6639 25.0679 29.3483 25.3835C29.0328 25.6991 28.8555 26.1271 28.8555 26.5734C28.8555 27.0197 29.0328 27.4477 29.3483 27.7633C29.6639 28.0789 30.092 28.2562 30.5383 28.2562Z" stroke="#3D747D" stroke-linecap="round" stroke-linejoin="round"/>
</g>
</g>
</g>
<g id="person">
<path id="Vector_13" d="M38.791 113.601C43.0825 117.73 49.6334 113.512 46.1708 107.688L38.791 113.601Z" fill="#ECF7FA"/>
<path id="Vector_14" d="M38.791 113.601C43.0825 117.73 49.6334 113.512 46.1708 107.688L38.791 113.601Z" stroke="#3D747D" stroke-linecap="round" stroke-linejoin="round"/>
<path id="Vector_15" d="M46.2695 107.61C50.5659 111.784 57.1622 107.541 53.6563 101.691L46.2695 107.61Z" fill="#ECF7FA"/>
<path id="Vector_16" d="M46.2695 107.61C50.5659 111.784 57.1622 107.541 53.6563 101.691L46.2695 107.61Z" stroke="#3D747D" stroke-linecap="round" stroke-linejoin="round"/>
<path id="Vector_17" d="M65.562 71.7852L26.8287 102.823C25.5738 103.796 24.639 105.122 24.1448 106.631C23.6506 108.14 23.6197 109.763 24.0559 111.289C24.3461 112.303 24.835 113.249 25.4942 114.072C26.1534 114.894 26.9697 115.578 27.8956 116.082C28.8213 116.587 29.8382 116.902 30.887 117.009C31.9357 117.116 32.9953 117.013 34.0039 116.706C35.0128 116.4 35.9506 115.896 36.7627 115.223L75.7411 83.9885C71.5193 80.6904 68.0491 76.5302 65.562 71.7852Z" fill="#43B9CE"/>
<path id="Vector_18" d="M65.562 71.7852L26.8287 102.823C25.5738 103.796 24.639 105.122 24.1448 106.631C23.6506 108.14 23.6197 109.763 24.0559 111.289C24.3461 112.303 24.835 113.249 25.4942 114.072C26.1534 114.894 26.9697 115.578 27.8956 116.082C28.8213 116.587 29.8382 116.902 30.887 117.009C31.9357 117.116 32.9953 117.013 34.0039 116.706C35.0128 116.4 35.9506 115.896 36.7627 115.223L75.7411 83.9885C71.5193 80.6904 68.0491 76.5302 65.562 71.7852Z" stroke="#3D747D" stroke-linecap="round" stroke-linejoin="round"/>
<path id="Vector_19" d="M92.0029 112.086L72.4707 126.294C74.6353 129.163 76.9158 132.189 78.9777 134.727L98.1956 121.274C96.186 118.174 94.1214 115.111 92.0029 112.086Z" stroke="#3D747D" stroke-linecap="round" stroke-linejoin="round"/>
<path id="Vector_20" d="M75.4931 89.8467C69.7535 82.166 61.9638 75.6723 58.0921 74.863C54.2203 74.0537 50.8303 74.7743 49.5148 78.3144C48.2887 78.5739 47.1402 79.1161 46.1606 79.8977C45.181 80.6794 44.3974 81.6789 43.8722 82.8168C40.2336 83.0597 36.9595 84.2286 35.6747 88.6346C31.8057 89.1771 28.7935 92.2739 28.2488 94.9419C27.8089 97.0612 27.9836 99.2621 28.7523 101.285L34.8082 96.4333C36.903 97.9695 42.9701 102.543 44.8428 104.344C49.8702 109.181 57.1676 118.489 64.3896 116.34C65.8384 117.493 68.998 121.695 72.469 126.297L92.0012 112.087C85.7902 103.207 80.2308 96.1896 75.4931 89.8467Z" fill="#ECF7FA"/>
<path id="Vector_21" d="M75.4936 89.8467C69.7547 82.166 61.9643 75.6723 58.0925 74.863C54.2207 74.0537 50.8307 74.7743 49.5152 78.3144C48.2892 78.5739 47.1406 79.1161 46.161 79.8977C45.1815 80.6794 44.3979 81.6789 43.8727 82.8168C40.2341 83.0604 36.96 84.2293 35.6752 88.6346C31.8062 89.1778 28.7765 92.2711 28.2493 94.9419C27.803 97.0608 27.9778 99.2635 28.7528 101.285L34.8087 96.4333C36.9034 97.9695 42.9705 102.543 44.8432 104.344C49.8706 109.182 57.168 118.488 64.39 116.34C65.8389 117.493 68.9985 121.695 72.4695 126.297L92.0016 112.087C85.7907 103.207 80.2312 96.1889 75.4936 89.8467Z" stroke="#3D747D" stroke-linecap="round" stroke-linejoin="round"/>
<path id="Vector_22" d="M35.6758 88.6328C38.716 88.135 42.2317 88.7096 47.803 93.7943" stroke="#3D747D" stroke-linecap="round" stroke-linejoin="round"/>
<path id="Vector_23" d="M49.5156 78.3117C54.4034 77.3209 57.9644 80.5461 60.7938 83.4543" stroke="#3D747D" stroke-linecap="round" stroke-linejoin="round"/>
<path id="Vector_24" d="M54.6456 88.0698C53.3936 86.4043 51.7643 85.0596 49.8916 84.1461C48.019 83.2326 45.9563 82.7763 43.873 82.8147" stroke="#3D747D" stroke-linecap="round" stroke-linejoin="round"/>
<path id="Vector_25" d="M98.8183 91.9218C119.537 91.9218 136.334 75.1254 136.334 54.4062C136.334 33.687 119.537 16.8906 98.8183 16.8906C78.0991 16.8906 61.3027 33.687 61.3027 54.4062C61.3027 75.1254 78.0991 91.9218 98.8183 91.9218Z" stroke="#3D747D" stroke-linecap="round" stroke-linejoin="round"/>
<path id="Vector_26" d="M98.8174 19.8984C89.6662 19.8989 80.89 23.5347 74.4194 30.0059C67.9489 36.4771 64.314 45.2537 64.3145 54.4049C64.3149 63.5561 67.9507 72.3324 74.4219 78.8029C80.8931 85.2735 89.6697 88.9083 98.8209 88.9079C107.972 88.9074 116.748 85.2717 123.219 78.8004C129.689 72.3292 133.324 63.5526 133.324 54.4014C133.323 45.2502 129.688 36.474 123.216 30.0034C116.745 23.5328 107.969 19.898 98.8174 19.8984Z" stroke="#3D747D" stroke-linecap="round" stroke-linejoin="round"/>
<path id="Vector_27" d="M85.1697 40.432C87.6307 38.7139 90.4093 37.5033 93.3434 36.8709L93.9956 36.8751C94.3656 36.0232 94.5556 35.1029 94.5542 34.1743C94.6512 32.2911 94.8719 30.4163 95.2147 28.5624C95.2147 28.5624 89.5498 27.3984 87.7783 27.3984C86.2113 27.3977 84.6924 27.9401 83.4802 28.9333C82.268 29.9264 81.4374 31.309 81.1299 32.8456C80.8223 34.3822 81.0568 35.9779 81.7933 37.3611C82.5299 38.7443 83.723 39.8295 85.1697 40.432Z" fill="#43B9CE"/>
<path id="Vector_28" d="M85.1697 40.432C87.6307 38.7139 90.4093 37.5033 93.3434 36.8709L93.9956 36.8751C94.3656 36.0232 94.5556 35.1029 94.5542 34.1743C94.6512 32.2911 94.8719 30.4163 95.2147 28.5624C95.2147 28.5624 89.5498 27.3984 87.7783 27.3984C86.2113 27.3977 84.6924 27.9401 83.4802 28.9333C82.268 29.9264 81.4374 31.309 81.1299 32.8456C80.8223 34.3822 81.0568 35.9779 81.7933 37.3611C82.5299 38.7443 83.723 39.8295 85.1697 40.432Z" stroke="#3D747D" stroke-linecap="round" stroke-linejoin="round"/>
<path id="Vector_29" d="M95.9915 29.8776C97.031 29.8776 98.0279 29.4647 98.7629 28.7297C99.4979 27.9947 99.9108 26.9978 99.9108 25.9583C99.9108 24.9189 99.4979 23.922 98.7629 23.187C98.0279 22.452 97.031 22.0391 95.9915 22.0391C94.9521 22.0391 93.9552 22.452 93.2202 23.187C92.4852 23.922 92.0723 24.9189 92.0723 25.9583C92.0723 26.9978 92.4852 27.9947 93.2202 28.7297C93.9552 29.4647 94.9521 29.8776 95.9915 29.8776Z" fill="#43B9CE"/>
<path id="Vector_30" d="M95.9915 29.8776C97.031 29.8776 98.0279 29.4647 98.7629 28.7297C99.4979 27.9947 99.9108 26.9978 99.9108 25.9583C99.9108 24.9189 99.4979 23.922 98.7629 23.187C98.0279 22.452 97.031 22.0391 95.9915 22.0391C94.9521 22.0391 93.9552 22.452 93.2202 23.187C92.4852 23.922 92.0723 24.9189 92.0723 25.9583C92.0723 26.9978 92.4852 27.9947 93.2202 28.7297C93.9552 29.4647 94.9521 29.8776 95.9915 29.8776Z" stroke="#3D747D" stroke-linecap="round" stroke-linejoin="round"/>
<path id="Vector_31" d="M108.69 42.0731C106.556 39.5251 102.115 38.2187 98.4073 36.9011L93.3435 36.8711C86.9895 38.2061 81.5194 42.4752 79.4023 46.7311C78.3571 49.0714 77.7194 51.5732 77.517 54.1283C76.7489 60.5083 76.7322 72.1062 77.4639 81.5039C82.9224 85.8099 89.555 88.365 96.4916 88.834C103.428 89.3031 110.344 87.6641 116.333 84.1321C114.696 72.1327 112.394 56.4584 110.455 46.7059C110.131 45.0651 109.763 43.3543 108.69 42.0731Z" stroke="#3D747D" stroke-linecap="round" stroke-linejoin="round"/>
<path id="Vector_32" d="M96.791 41.6484C99.8885 62.3795 98.2538 46.2736 101.734 88.788" stroke="#3D747D" stroke-linecap="round" stroke-linejoin="round"/>
<path id="Vector_33" d="M90.9648 37.5195C91.1115 39.8971 91.1247 42.2802 91.0025 44.6591C91.0025 44.6591 94.4477 45.4342 95.5146 45.6444C93.6091 47.2029 92.9695 47.5995 91.6114 48.7984C94.7843 55.4541 97.5396 62.5706 100.109 68.6405" stroke="#3D747D" stroke-linecap="round" stroke-linejoin="round"/>
<path id="Vector_34" d="M101.17 37.8672C101.497 40.1067 102.117 42.2933 103.015 44.3707C102.003 44.5941 100.191 45.1032 99.1797 45.3259C100.569 46.4167 102.03 47.4139 103.552 48.3109C103.552 48.3109 101.337 62.8904 100.108 68.637" stroke="#3D747D" stroke-linecap="round" stroke-linejoin="round"/>
<path id="Vector_35" d="M85.1038 62.8906C85.1038 71.0867 85.0033 84.6704 85.3831 86.1912" stroke="#3D747D" stroke-linecap="round" stroke-linejoin="round"/>
<path id="Vector_36" d="M108.006 62.2305C106.303 68.13 105.506 69.0601 106.527 75.1146C107.296 79.2825 107.693 83.5105 107.714 87.7487" stroke="#3D747D" stroke-linecap="round" stroke-linejoin="round"/>
<path id="Vector_37" d="M90.6764 55.6875H85.0918V60.4223H90.6764V55.6875Z" stroke="#3D747D" stroke-linecap="round" stroke-linejoin="round"/>
<path id="Vector_38" d="M88.0137 53.7617V57.6119" stroke="#3D747D" stroke-linecap="round" stroke-linejoin="round"/>
<path id="Vector_39" d="M98.3111 24.3824C98.1225 24.0613 97.8315 23.8129 97.4848 23.677C97.1381 23.5412 96.7558 23.5257 96.3993 23.6332C96.0427 23.7405 95.7325 23.9644 95.5183 24.269C95.3041 24.5736 95.1983 24.9413 95.2179 25.3132C95.28 26.1769 95.2821 25.9563 95.2255 26.3298C94.7954 25.9856 94.3052 25.8836 94.1153 26.1099C93.8514 26.422 94.3143 27.2061 95.0475 27.4973C94.6579 30.0159 93.8458 35.0768 93.3438 36.872C93.8584 38.1987 95.3687 41.6362 96.791 41.6508C98.0988 41.2745 98.2057 38.3202 98.4075 36.9027C98.3307 34.7933 98.0185 32.1693 97.8817 29.8176C98.0618 29.7841 98.2378 29.7324 98.4068 29.6626C99.9967 29.0216 98.9144 25.3502 98.3111 24.3824Z" fill="#ECF7FA"/>
<path id="Vector_40" d="M98.3111 24.3824C98.1225 24.0613 97.8315 23.8129 97.4848 23.677C97.1381 23.5412 96.7558 23.5257 96.3993 23.6332C96.0427 23.7405 95.7325 23.9644 95.5183 24.269C95.3041 24.5736 95.1983 24.9413 95.2179 25.3132C95.28 26.1769 95.2821 25.9563 95.2255 26.3298C94.7954 25.9856 94.3052 25.8836 94.1153 26.1099C93.8514 26.422 94.3143 27.2061 95.0475 27.4973C94.6579 30.0159 93.8458 35.0768 93.3438 36.872C93.8584 38.1987 95.3687 41.6362 96.791 41.6508C98.0988 41.2745 98.2057 38.3202 98.4075 36.9027C98.3307 34.7933 98.0185 32.1693 97.8817 29.8176C98.0618 29.7841 98.2378 29.7324 98.4068 29.6626C99.9967 29.0216 98.9144 25.3502 98.3111 24.3824Z" stroke="#3D747D" stroke-linecap="round" stroke-linejoin="round"/>
<path id="Vector_41" d="M95.2704 26.0312C95.225 26.2033 95.2082 26.3816 95.2209 26.5591C95.2516 27.0102 95.371 31.6089 97.965 31.0419C97.9322 30.6229 97.9049 30.2131 97.8819 29.8158C95.8863 30.1761 95.4017 27.4124 95.2704 26.0312Z" fill="#43B9CE"/>
<path id="Vector_42" d="M95.2704 26.0312C95.225 26.2033 95.2082 26.3816 95.2209 26.5591C95.2516 27.0102 95.371 31.6089 97.965 31.0419C97.9322 30.6229 97.9049 30.2131 97.8819 29.8158C95.8863 30.1761 95.4017 27.4124 95.2704 26.0312Z" stroke="#3D747D" stroke-linecap="round" stroke-linejoin="round"/>
</g>
<g id="elements">
<path id="Vector_43" d="M104.277 101.133H111.735" stroke="#3D747D" stroke-linecap="round" stroke-linejoin="round"/>
<path id="Vector_44" d="M108.006 104.86V97.4023" stroke="#3D747D" stroke-linecap="round" stroke-linejoin="round"/>
<path id="Vector_45" d="M120.113 93.7969H124.182" stroke="#3D747D" stroke-linecap="round" stroke-linejoin="round"/>
<path id="Vector_46" d="M122.148 95.8297V91.7617" stroke="#3D747D" stroke-linecap="round" stroke-linejoin="round"/>
<path id="Vector_47" d="M3.66602 88.5039L8.9392 93.7771" stroke="#3D747D" stroke-linecap="round" stroke-linejoin="round"/>
<path id="Vector_48" d="M3.66602 93.7771L8.9392 88.5039" stroke="#3D747D" stroke-linecap="round" stroke-linejoin="round"/>
<path id="Vector_49" d="M10.043 72.2227L12.7326 74.9123" stroke="#3D747D" stroke-linecap="round" stroke-linejoin="round"/>
<path id="Vector_50" d="M10.043 74.9123L12.7326 72.2227" stroke="#3D747D" stroke-linecap="round" stroke-linejoin="round"/>
<path id="Vector_51" d="M109.227 32.9564L111.532 36.7598L114.243 31.0781" stroke="#3D747D" stroke-linecap="round" stroke-linejoin="round"/>
</g>
</g>
</g>
</svg>
