<svg width="24" height="24" viewBox="0 0 24 24" fill="none" xmlns="http://www.w3.org/2000/svg">
<path d="M12 24C18.6274 24 24 18.6274 24 12C24 5.37258 18.6274 0 12 0C5.37258 0 0 5.37258 0 12C0 18.6274 5.37258 24 12 24Z" fill="#0077B5"/>
<path d="M8.84475 6.92237C8.84475 7.30258 8.732 7.67425 8.52077 7.99038C8.30953 8.30652 8.0093 8.55291 7.65803 8.69841C7.30677 8.84391 6.92024 8.88198 6.54734 8.80781C6.17443 8.73363 5.8319 8.55054 5.56305 8.28169C5.2942 8.01285 5.11111 7.67031 5.03694 7.29741C4.96276 6.9245 5.00083 6.53798 5.14633 6.18671C5.29183 5.83544 5.53823 5.53521 5.85436 5.32398C6.17049 5.11274 6.54216 5 6.92237 5C7.43222 5 7.92118 5.20254 8.2817 5.56305C8.64221 5.92356 8.84475 6.41253 8.84475 6.92237Z" fill="white"/>
<path d="M8.40808 10.1252V18.6182C8.40842 18.6809 8.39637 18.743 8.37263 18.801C8.34889 18.8589 8.31392 18.9117 8.26973 18.9561C8.22555 19.0005 8.17302 19.0358 8.11516 19.0598C8.05731 19.0839 7.99527 19.0963 7.93262 19.0963H5.90644C5.84378 19.0964 5.78171 19.0842 5.72379 19.0603C5.66588 19.0364 5.61325 19.0013 5.56895 18.957C5.52464 18.9127 5.48953 18.8601 5.46564 18.8022C5.44174 18.7442 5.42952 18.6822 5.42969 18.6195V10.1252C5.42969 9.99874 5.47992 9.87748 5.56933 9.78807C5.65873 9.69867 5.78 9.64844 5.90644 9.64844H7.93262C8.05884 9.64878 8.17977 9.69916 8.2689 9.78853C8.35803 9.8779 8.40809 9.99897 8.40808 10.1252Z" fill="white"/>
<path d="M18.9992 14.547V18.6583C18.9993 18.7159 18.9881 18.773 18.9662 18.8262C18.9442 18.8795 18.9119 18.9279 18.8712 18.9686C18.8304 19.0093 18.7821 19.0416 18.7288 19.0636C18.6756 19.0856 18.6185 19.0968 18.5609 19.0966H16.3822C16.3246 19.0968 16.2675 19.0856 16.2143 19.0636C16.161 19.0416 16.1126 19.0093 16.0719 18.9686C16.0311 18.9279 15.9989 18.8795 15.9769 18.8262C15.9549 18.773 15.9437 18.7159 15.9439 18.6583V14.6739C15.9439 14.0792 16.1182 12.0697 14.3893 12.0697C13.0501 12.0697 12.7771 13.4448 12.7233 14.0626V18.6583C12.7233 18.7734 12.678 18.884 12.5972 18.966C12.5164 19.048 12.4065 19.0949 12.2914 19.0966H10.187C10.1295 19.0966 10.0726 19.0853 10.0195 19.0632C9.96638 19.0412 9.91815 19.0089 9.87755 18.9682C9.83695 18.9274 9.80479 18.8791 9.7829 18.8259C9.76101 18.7728 9.74983 18.7158 9.75 18.6583V10.0884C9.74983 10.0309 9.76101 9.9739 9.7829 9.92074C9.80479 9.86757 9.83695 9.81924 9.87755 9.77852C9.91815 9.7378 9.96638 9.7055 10.0195 9.68346C10.0726 9.66141 10.1295 9.65007 10.187 9.65007H12.2914C12.4076 9.65007 12.5191 9.69625 12.6013 9.77844C12.6835 9.86064 12.7297 9.97212 12.7297 10.0884V10.8291C13.2269 10.0832 13.9638 9.50781 15.5363 9.50781C19.0197 9.50781 18.9992 12.7605 18.9992 14.547Z" fill="white"/>
</svg>
