<svg width="140" height="140" viewBox="0 0 140 140" fill="none" xmlns="http://www.w3.org/2000/svg">
<g id="therapy-counseling 1">
<g id="therapy-counseling--health-wellness-med-therapy-counseling">
<g id="person">
<path id="Subtract" fill-rule="evenodd" clip-rule="evenodd" d="M42.4656 103.442C44.4212 105.36 46.7536 106.852 49.3155 107.823C42.3288 120.809 32.1085 122.256 21.9545 120.057C9.97466 117.464 0.541306 105.332 9.14654 95.1646C11.6896 92.1594 13.7599 88.916 15.523 85.5386C18.8077 90.9473 23.4445 95.4073 28.9768 98.4792C33.3416 100.922 37.9158 102.662 42.4656 103.442ZM39.8116 37.9018L42.261 39.4143C41.9398 40.0357 41.6249 40.6655 41.3156 41.3009C42.3679 40.4567 43.5471 39.7843 44.8097 39.3088L44.228 35.2227C42.6835 35.9906 41.2062 36.8868 39.8116 37.9018ZM36.5333 61.7583C36.1744 59.7836 36.2079 57.6379 36.5333 55.4014V61.7583ZM36.5333 78.4164L36.4823 78.3941L36.5333 78.5623V78.4164Z" fill="#ECF7FA"/>
<path id="Subtract_2" d="M42.4656 103.441C44.4211 105.36 46.7536 106.852 49.3155 107.823C42.3288 120.809 32.1085 122.256 21.9545 120.056C9.97466 117.464 0.541305 105.332 9.14654 95.1644C11.6896 92.1592 13.7599 88.9158 15.523 85.5391C18.8075 90.9478 23.4444 95.4075 28.9768 98.479C33.3416 100.922 37.9158 102.663 42.4656 103.441Z" stroke="#3D747D" stroke-linecap="round" stroke-linejoin="round"/>
<path id="vector" d="M108.108 69.3086C110.166 72.9346 112.796 76.6661 116.419 80.4617C128.165 92.7628 129.885 106.076 116.345 115.801C109.661 120.601 93.9798 122.017 83.8594 107.719" stroke="#3D747D" stroke-linecap="round" stroke-linejoin="round"/>
<path id="vector_2" d="M43.1578 115.626C42.9517 118.45 42.7259 121.272 42.4805 124.092H90.8866C90.8866 124.092 90.4349 118.971 90.106 114.156" stroke="#3D747D" stroke-linecap="round" stroke-linejoin="round"/>
<path id="vector_3" d="M42.332 103.311C46.0446 107.023 51.0797 109.109 56.3299 109.109H77.357C81.8257 109.108 86.1111 107.332 89.271 104.173C92.4309 101.013 94.2064 96.7273 94.2071 92.2586V68.8672" stroke="#3D747D" stroke-linecap="round" stroke-linejoin="round"/>
<path id="Subtract_3" fill-rule="evenodd" clip-rule="evenodd" d="M59.8095 39.191C53.5615 41.2983 48.0754 46.767 45.0324 52.5338C44.6071 53.3498 44.1921 54.171 43.7874 54.9973C42.0432 58.5206 40.1551 62.3345 37.2183 64.5794C36.9338 63.6561 36.7057 62.7164 36.5354 61.7654C35.3428 55.2186 38.4605 46.7879 42.261 39.4144L37.5374 36.4992C39.5434 34.3305 41.8847 32.6498 44.3579 31.7344C44.8851 33.5407 46.9644 34.0093 49.6737 34.1796C52.8996 34.3179 57.0919 36.6626 59.8095 39.191Z" fill="#ECF7FA"/>
<path id="Subtract_4" d="M59.8095 39.191C53.5615 41.2983 48.0754 46.767 45.0324 52.5338C44.6071 53.3498 44.1921 54.171 43.7874 54.9973C42.0432 58.5206 40.1551 62.3345 37.2183 64.5794C36.9338 63.6561 36.7057 62.7164 36.5354 61.7654C35.3428 55.2186 38.4605 46.7879 42.261 39.4144L37.5374 36.4992C39.5434 34.3305 41.8847 32.6498 44.3579 31.7344C44.8851 33.5407 46.9644 34.0093 49.6737 34.1796C52.8996 34.3179 57.0919 36.6626 59.8095 39.191Z" stroke="#3D747D" stroke-linecap="round" stroke-linejoin="round"/>
<path id="vector_4" d="M58.753 70.3398C55.3002 66.209 44.9975 66.2103 41.5391 70.3398H58.753Z" fill="#43B9CE"/>
<path id="vector_5" d="M58.753 70.3398C55.3002 66.209 44.9975 66.2103 41.5391 70.3398H58.753Z" stroke="#3D747D" stroke-linecap="round" stroke-linejoin="round"/>
<path id="vector_6" d="M90.8943 70.3398C87.4415 66.209 77.1388 66.2103 73.6797 70.3398H90.8943Z" fill="#43B9CE"/>
<path id="vector_7" d="M90.8943 70.3398C87.4415 66.209 77.1388 66.2103 73.6797 70.3398H90.8943Z" stroke="#3D747D" stroke-linecap="round" stroke-linejoin="round"/>
<path id="vector_8" d="M70.6977 72.1172C70.616 77.7625 72.0174 79.696 71.5545 82.0463C71.2961 83.3576 70.2054 84.6249 68.8711 84.5565" stroke="#3D747D" stroke-linecap="round" stroke-linejoin="round"/>
<path id="vector_9" d="M71.651 89.1641C70.177 91.9962 64.8081 92.0269 63.3418 89.1641" stroke="#3D747D" stroke-linecap="round" stroke-linejoin="round"/>
<path id="vector_10" d="M56.4127 76.8438C56.1457 77.476 55.6982 78.0156 55.1262 78.3949C54.5541 78.7743 53.883 78.9766 53.1966 78.9766C52.5102 78.9766 51.8391 78.7743 51.2671 78.3949C50.695 78.0156 50.2475 77.476 49.9805 76.8438" stroke="#3D747D" stroke-linecap="round" stroke-linejoin="round"/>
<path id="vector_11" d="M85.8359 76.8438C85.6358 77.316 85.3342 77.7384 84.9524 78.0809C84.5707 78.4234 84.1182 78.6777 83.6272 78.8257C83.1361 78.9736 82.6185 79.0117 82.111 78.937C81.6036 78.8624 81.1188 78.677 80.6912 78.3939C80.1193 78.0148 79.6717 77.4756 79.4043 76.8438" stroke="#3D747D" stroke-linecap="round" stroke-linejoin="round"/>
</g>
<g id="hand 2">
<path id="Subtract_5" fill-rule="evenodd" clip-rule="evenodd" d="M29.3273 15.9062C26.4465 19.2682 23.772 22.8015 21.3184 26.4868L42.2617 39.41C43.3398 37.3485 44.4744 35.317 45.6642 33.3178C44.7523 32.8053 44.2175 31.9981 44.2272 30.7099C44.2377 29.2428 45.6196 27.9867 47.0656 27.1446L29.3273 15.9062ZM32.4631 24.0548C32.4631 24.8504 32.1471 25.6134 31.5845 26.1759C31.022 26.7385 30.259 27.0545 29.4634 27.0545C28.6679 27.0545 27.9049 26.7385 27.3424 26.1759C26.7798 25.6134 26.4638 24.8504 26.4638 24.0548C26.4638 23.2593 26.7798 22.4963 27.3424 21.9337C27.9049 21.3712 28.6679 21.0551 29.4634 21.0551C30.259 21.0551 31.022 21.3712 31.5845 21.9337C32.1471 22.4963 32.4631 23.2593 32.4631 24.0548Z" fill="#43B9CE"/>
<path id="Subtract_6" fill-rule="evenodd" clip-rule="evenodd" d="M29.3273 15.9062C26.4465 19.2682 23.772 22.8015 21.3184 26.4868L42.2617 39.41C43.3398 37.3485 44.4744 35.317 45.6642 33.3178C44.7523 32.8053 44.2175 31.9981 44.2272 30.7099C44.2377 29.2428 45.6196 27.9867 47.0656 27.1446L29.3273 15.9062ZM32.4631 24.0548C32.4631 24.8504 32.1471 25.6134 31.5845 26.1759C31.022 26.7385 30.259 27.0545 29.4634 27.0545C28.6679 27.0545 27.9049 26.7385 27.3424 26.1759C26.7798 25.6134 26.4638 24.8504 26.4638 24.0548C26.4638 23.2593 26.7798 22.4963 27.3424 21.9337C27.9049 21.3712 28.6679 21.0551 29.4634 21.0551C30.259 21.0551 31.022 21.3712 31.5845 21.9337C32.1471 22.4963 32.4631 23.2593 32.4631 24.0548Z" stroke="#3D747D" stroke-linecap="round" stroke-linejoin="round"/>
<path id="vector_12" d="M52.9408 99.0856C53.5993 97.708 53.1957 95.2774 49.6221 94.547C48.3371 94.3128 47.0352 94.1842 45.7293 94.1623C46.1721 93.7985 46.5171 93.3301 46.7332 92.7993C46.9492 92.2686 47.0295 91.6923 46.9666 91.1228C46.1287 86.654 38.441 85.0676 36.4831 78.3902C40.3053 80.1302 42.8204 76.4037 41.2836 73.2832C39.1434 68.9366 37.4027 66.5297 36.5355 61.7621C35.3428 55.2146 38.4605 46.7846 42.2611 39.4111L21.3185 26.4844C3.26523 53.7622 10.2708 73.4598 12.7712 79.9913C15.8682 87.8442 21.5965 94.3778 28.9769 98.4754C36.2736 102.559 44.1562 104.681 51.5304 103.627C53.3242 103.371 54.3897 102.58 54.5119 101.555C54.5858 101.024 54.4683 100.484 54.1805 100.031C53.8926 99.5788 53.4532 99.2436 52.9408 99.0856Z" stroke="#3D747D" stroke-linecap="round" stroke-linejoin="round"/>
<path id="vector_13" d="M18.2227 66.1953C20.4246 74.2566 24.6447 81.6236 30.4846 87.6009C34.1511 91.3505 42.4813 96.4323 45.7302 94.1644" stroke="#3D747D" stroke-linecap="round" stroke-linejoin="round"/>
<path id="vector_14" d="M27.31 50.418C25.4485 70.8118 31.7285 75.1737 36.4724 78.3864" stroke="#3D747D" stroke-linecap="round" stroke-linejoin="round"/>
<path id="vector_15" d="M16.3633 75.6797C21.1149 89.7941 32.7889 96.3339 37.7367 98.3372C41.7949 99.9809 50.9267 101.743 52.9411 99.0871" stroke="#3D747D" stroke-linecap="round" stroke-linejoin="round"/>
<path id="vector_16" d="M29.4645 27.0541C29.8584 27.0541 30.2485 26.9765 30.6125 26.8257C30.9764 26.675 31.3071 26.454 31.5856 26.1755C31.8642 25.8969 32.0851 25.5662 32.2359 25.2023C32.3866 24.8384 32.4642 24.4483 32.4642 24.0544C32.4642 23.6604 32.3866 23.2704 32.2359 22.9064C32.0851 22.5425 31.8642 22.2118 31.5856 21.9333C31.3071 21.6547 30.9764 21.4338 30.6125 21.283C30.2485 21.1323 29.8584 21.0547 29.4645 21.0547C28.669 21.0547 27.906 21.3707 27.3434 21.9333C26.7809 22.4958 26.4648 23.2588 26.4648 24.0544C26.4648 24.8499 26.7809 25.6129 27.3434 26.1755C27.906 26.738 28.669 27.0541 29.4645 27.0541Z" stroke="#3D747D" stroke-linecap="round" stroke-linejoin="round"/>
<path id="vector_17" d="M28.0352 25.4843L30.8938 22.625" stroke="#3D747D" stroke-linecap="round" stroke-linejoin="round"/>
<path id="vector_18" d="M27.9199 22.5117L31.0083 25.6001" stroke="#3D747D" stroke-linecap="round" stroke-linejoin="round"/>
</g>
<g id="hand 1">
<path id="Subtract_7" fill-rule="evenodd" clip-rule="evenodd" d="M129.989 69.0825C129.989 69.0825 124.309 69.2061 117.369 69.2682L117.37 41.5547C120.513 41.7362 123.755 41.679 126.9 41.6231C127.841 41.6071 128.775 41.5903 129.695 41.5805L129.989 69.0825ZM126.678 63.942C126.678 64.3359 126.601 64.726 126.45 65.0899C126.299 65.4538 126.078 65.7845 125.8 66.0631C125.521 66.3416 125.19 66.5626 124.826 66.7133C124.463 66.8641 124.072 66.9417 123.679 66.9417C123.285 66.9417 122.895 66.8641 122.531 66.7133C122.167 66.5626 121.836 66.3416 121.557 66.0631C121.279 65.7845 121.058 65.4538 120.907 65.0899C120.756 64.726 120.679 64.3359 120.679 63.942C120.679 63.1464 120.995 62.3834 121.557 61.8209C122.12 61.2583 122.883 60.9423 123.679 60.9423C124.474 60.9423 125.237 61.2583 125.8 61.8209C126.362 62.3834 126.678 63.1464 126.678 63.942Z" fill="#ECF7FA"/>
<path id="vector_19" d="M117.369 69.2682C121.576 69.2304 125.783 69.1685 129.989 69.0825L129.695 41.5805C125.707 41.6231 121.455 41.79 117.37 41.5547L117.369 69.2682Z" stroke="#3D747D" stroke-linecap="round" stroke-linejoin="round"/>
<path id="vector_20" d="M123.679 66.9447C124.474 66.9447 125.237 66.6286 125.8 66.0661C126.362 65.5035 126.678 64.7406 126.678 63.945C126.678 63.1494 126.362 62.3865 125.8 61.8239C125.237 61.2614 124.474 60.9453 123.679 60.9453C122.891 60.9573 122.14 61.2786 121.587 61.8398C121.034 62.401 120.725 63.157 120.725 63.9446C120.725 64.7323 121.034 65.4883 121.587 66.0495C122.14 66.6107 122.891 66.932 123.679 66.944V66.9447Z" stroke="#3D747D" stroke-linecap="round" stroke-linejoin="round"/>
<path id="vector_21" d="M121.658 63.9453H125.7" stroke="#3D747D" stroke-linecap="round" stroke-linejoin="round"/>
<path id="vector_22" d="M123.678 61.7578V66.1261" stroke="#3D747D" stroke-linecap="round" stroke-linejoin="round"/>
<path id="vector_23" d="M101.626 36.5582C95.4559 31.6655 91.3816 24.5483 84.3495 21.0004C77.3175 17.4526 67.5217 16.9897 60.1496 19.7645C55.6741 20.7628 51.6059 23.093 48.4804 26.4482C46.6887 27.1723 44.2407 28.7524 44.2267 30.7075C44.2071 33.3713 46.5107 33.9767 49.673 34.175C53.5525 34.3412 58.8299 37.6998 61.2591 40.7295C63.6883 43.7592 65.339 47.3252 67.3814 50.6286C73.0302 59.7652 82.2199 67.0689 92.8312 68.7405C96.5424 69.3242 108.111 69.3536 117.366 69.2712V41.5562C111.595 41.219 106.045 40.0599 101.626 36.5568V36.5582Z" stroke="#3D747D" stroke-linecap="round" stroke-linejoin="round"/>
<path id="vector_24" d="M78.3467 39.4093C72.4039 30.883 62.8951 22.0843 48.4805 26.4491" stroke="#3D747D" stroke-linecap="round" stroke-linejoin="round"/>
<path id="vector_25" d="M85.8351 31.7337C82.288 26.0038 72.6075 20.4346 66.1445 19.5541C64.143 19.4192 62.133 19.4918 60.1465 19.7705" stroke="#3D747D" stroke-linecap="round" stroke-linejoin="round"/>
</g>
<g id="elements">
<g id="group">
<path id="vector_26" d="M99.0469 21.3828H105.358" stroke="#3D747D" stroke-linecap="round" stroke-linejoin="round"/>
<path id="vector_27" d="M102.201 17.9727V24.7911" stroke="#3D747D" stroke-linecap="round" stroke-linejoin="round"/>
</g>
<g id="group_2">
<path id="vector_28" d="M110.689 32.1211H114.487" stroke="#3D747D" stroke-linecap="round" stroke-linejoin="round"/>
<path id="vector_29" d="M112.588 30.0703V34.1746" stroke="#3D747D" stroke-linecap="round" stroke-linejoin="round"/>
</g>
<g id="group_3">
<path id="vector_30" d="M129.67 91.9922H136.334" stroke="#3D747D" stroke-linecap="round" stroke-linejoin="round"/>
<path id="vector_31" d="M133.002 88.3945V95.5942" stroke="#3D747D" stroke-linecap="round" stroke-linejoin="round"/>
</g>
<g id="group_4">
<path id="vector_32" d="M17.1016 107.934L20.7234 111.556" stroke="#3D747D" stroke-linecap="round" stroke-linejoin="round"/>
<path id="vector_33" d="M17.1016 111.556L20.7234 107.934" stroke="#3D747D" stroke-linecap="round" stroke-linejoin="round"/>
</g>
<path id="vector_34" d="M9.32533 40.5625L6.10011 45.2869L3.66602 42.2746" stroke="#3D747D" stroke-linecap="round" stroke-linejoin="round"/>
</g>
</g>
</g>
</svg>
