<svg width="249" height="50" viewBox="0 0 249 50" fill="none" xmlns="http://www.w3.org/2000/svg">
<g id="White logo - no background">
<g id="Group">
<g id="SvgjsG9826">
<path id="Vector" d="M10.5059 39.4971L43.458 6.54297" stroke="#41CBC0" stroke-width="0.546099" stroke-miterlimit="10" stroke-linecap="round" stroke-linejoin="round"/>
<path id="Vector_2" d="M17.0156 39.4961H35.0225" stroke="#41CBC0" stroke-width="0.546099" stroke-miterlimit="10" stroke-linecap="round" stroke-linejoin="round"/>
<path id="Vector_3" d="M36.5547 37.4375H16.0898" stroke="#41CBC0" stroke-width="0.546099" stroke-miterlimit="10" stroke-linecap="round" stroke-linejoin="round"/>
<path id="Vector_4" d="M18.5918 41.5606L33.1582 41.5586" stroke="#41CBC0" stroke-width="0.546099" stroke-miterlimit="10" stroke-linecap="round" stroke-linejoin="round"/>
<path id="Vector_5" d="M21.5449 43.6172H30.207" stroke="#41CBC0" stroke-width="0.546099" stroke-miterlimit="10" stroke-linecap="round" stroke-linejoin="round"/>
<path id="Vector_6" d="M14.625 35.3789H37.8233" stroke="#41CBC0" stroke-width="0.546099" stroke-miterlimit="10" stroke-linecap="round" stroke-linejoin="round"/>
<path id="Vector_7" d="M16.6836 33.3164L16.6846 33.3174L38.8686 33.3194L16.6836 33.3164Z" fill="white" stroke="#41CBC0" stroke-width="0.546099" stroke-miterlimit="10" stroke-linecap="round" stroke-linejoin="round"/>
<path id="Vector_8" d="M18.7441 31.2578L18.7456 31.2593H39.7134L18.7441 31.2578Z" fill="white" stroke="#41CBC0" stroke-width="0.546099" stroke-miterlimit="10" stroke-linecap="round" stroke-linejoin="round"/>
<path id="Vector_9" d="M20.8027 29.1953L20.8047 29.1973L40.4777 29.1983L20.8027 29.1953Z" fill="white" stroke="#41CBC0" stroke-width="0.546099" stroke-miterlimit="10" stroke-linecap="round" stroke-linejoin="round"/>
<path id="Vector_10" d="M22.8652 27.1367V27.1377H41.1576L22.8652 27.1367Z" fill="white" stroke="#41CBC0" stroke-width="0.546099" stroke-miterlimit="10" stroke-linecap="round" stroke-linejoin="round"/>
<path id="Vector_11" d="M24.9238 25.0781V25.0796H41.7283L24.9238 25.0781Z" fill="white" stroke="#41CBC0" stroke-width="0.546099" stroke-miterlimit="10" stroke-linecap="round" stroke-linejoin="round"/>
<path id="Vector_12" d="M26.9805 23.0156L26.9844 23.0166L42.2261 23.0176L26.9805 23.0156Z" fill="white" stroke="#41CBC0" stroke-width="0.546099" stroke-miterlimit="10" stroke-linecap="round" stroke-linejoin="round"/>
<path id="Vector_13" d="M29.043 20.9609L29.0445 20.9614L42.6528 20.9624L29.043 20.9609Z" fill="white" stroke="#41CBC0" stroke-width="0.546099" stroke-miterlimit="10" stroke-linecap="round" stroke-linejoin="round"/>
<path id="Vector_14" d="M31.1016 18.8984L31.1026 18.8989L43.008 18.8999L31.1016 18.8984Z" fill="white" stroke="#41CBC0" stroke-width="0.546099" stroke-miterlimit="10" stroke-linecap="round" stroke-linejoin="round"/>
<path id="Vector_15" d="M33.1621 16.8398V16.8418H43.2615L33.1621 16.8398Z" fill="white" stroke="#41CBC0" stroke-width="0.546099" stroke-miterlimit="10" stroke-linecap="round" stroke-linejoin="round"/>
<path id="Vector_16" d="M35.2207 14.7812L35.2227 14.7827H43.4464L35.2207 14.7812Z" fill="white" stroke="#41CBC0" stroke-width="0.546099" stroke-miterlimit="10" stroke-linecap="round" stroke-linejoin="round"/>
<path id="Vector_17" d="M37.2793 12.7188L37.2813 12.7212H43.5649L37.2793 12.7188Z" fill="white" stroke="#41CBC0" stroke-width="0.546099" stroke-miterlimit="10" stroke-linecap="round" stroke-linejoin="round"/>
<path id="Vector_18" d="M39.3398 10.6602L39.3418 10.6611H43.6173L39.3398 10.6602Z" fill="white" stroke="#41CBC0" stroke-width="0.546099" stroke-miterlimit="10" stroke-linecap="round" stroke-linejoin="round"/>
<path id="Vector_19" d="M41.3984 8.60156L41.4004 8.60355H43.5774L41.3984 8.60156Z" fill="white" stroke="#41CBC0" stroke-width="0.546099" stroke-miterlimit="10" stroke-linecap="round" stroke-linejoin="round"/>
<path id="Vector_20" d="M10.502 32.9854L10.5039 14.9766" stroke="#41CBC0" stroke-width="0.546099" stroke-miterlimit="10" stroke-linecap="round" stroke-linejoin="round"/>
<path id="Vector_21" d="M12.5645 13.4453V33.9111" stroke="#41CBC0" stroke-width="0.546099" stroke-miterlimit="10" stroke-linecap="round" stroke-linejoin="round"/>
<path id="Vector_22" d="M8.44336 31.4083L8.44535 16.8398" stroke="#41CBC0" stroke-width="0.546099" stroke-miterlimit="10" stroke-linecap="round" stroke-linejoin="round"/>
<path id="Vector_23" d="M6.38281 28.4561L6.3848 19.793" stroke="#41CBC0" stroke-width="0.546099" stroke-miterlimit="10" stroke-linecap="round" stroke-linejoin="round"/>
<path id="Vector_24" d="M14.623 35.3785V12.1797" stroke="#41CBC0" stroke-width="0.546099" stroke-miterlimit="10" stroke-linecap="round" stroke-linejoin="round"/>
<path id="Vector_25" d="M16.6836 33.3139L16.6816 33.312V11.1289L16.6836 33.3139Z" fill="white" stroke="#41CBC0" stroke-width="0.546099" stroke-miterlimit="10" stroke-linecap="round" stroke-linejoin="round"/>
<path id="Vector_26" d="M18.7452 31.2574L18.7432 31.2554L18.7422 10.2852L18.7452 31.2574Z" fill="white" stroke="#41CBC0" stroke-width="0.546099" stroke-miterlimit="10" stroke-linecap="round" stroke-linejoin="round"/>
<path id="Vector_27" d="M20.8042 29.1974L20.8027 29.1964V9.52344L20.8042 29.1974Z" fill="white" stroke="#41CBC0" stroke-width="0.546099" stroke-miterlimit="10" stroke-linecap="round" stroke-linejoin="round"/>
<path id="Vector_28" d="M22.8648 27.1376L22.8633 27.1356L22.8613 8.84375L22.8648 27.1376Z" fill="white" stroke="#41CBC0" stroke-width="0.546099" stroke-miterlimit="10" stroke-linecap="round" stroke-linejoin="round"/>
<path id="Vector_29" d="M24.9234 25.0794L24.9219 25.0774L24.9199 8.27344L24.9234 25.0794Z" fill="white" stroke="#41CBC0" stroke-width="0.546099" stroke-miterlimit="10" stroke-linecap="round" stroke-linejoin="round"/>
<path id="Vector_30" d="M26.9795 23.0176V23.0161L26.9785 7.77344L26.9795 23.0176Z" fill="white" stroke="#41CBC0" stroke-width="0.546099" stroke-miterlimit="10" stroke-linecap="round" stroke-linejoin="round"/>
<path id="Vector_31" d="M29.043 20.9584L29.041 20.9564V7.34766L29.043 20.9584Z" fill="white" stroke="#41CBC0" stroke-width="0.546099" stroke-miterlimit="10" stroke-linecap="round" stroke-linejoin="round"/>
<path id="Vector_32" d="M31.1016 18.8986V18.8962L31.0996 6.99219L31.1016 18.8986Z" fill="white" stroke="#41CBC0" stroke-width="0.546099" stroke-miterlimit="10" stroke-linecap="round" stroke-linejoin="round"/>
<path id="Vector_33" d="M33.1607 16.8376L33.1582 16.8362V6.73828L33.1607 16.8376Z" fill="white" stroke="#41CBC0" stroke-width="0.546099" stroke-miterlimit="10" stroke-linecap="round" stroke-linejoin="round"/>
<path id="Vector_34" d="M35.2207 14.778L35.2188 14.776V6.55078L35.2207 14.778Z" fill="white" stroke="#41CBC0" stroke-width="0.546099" stroke-miterlimit="10" stroke-linecap="round" stroke-linejoin="round"/>
<path id="Vector_35" d="M37.2803 12.7197L37.2793 12.7187V6.43359L37.2803 12.7197Z" fill="white" stroke="#41CBC0" stroke-width="0.546099" stroke-miterlimit="10" stroke-linecap="round" stroke-linejoin="round"/>
<path id="Vector_36" d="M39.3398 10.6603V10.6598V6.38281V10.6603Z" fill="white" stroke="#41CBC0" stroke-width="0.546099" stroke-miterlimit="10" stroke-linecap="round" stroke-linejoin="round"/>
<path id="Vector_37" d="M41.3985 8.59932L41.3965 8.59833V6.42188L41.3985 8.59932Z" fill="white" stroke="#41CBC0" stroke-width="0.546099" stroke-miterlimit="10" stroke-linecap="round" stroke-linejoin="round"/>
</g>
<g id="SvgjsG9827">
<path id="Vector_38" d="M66.4718 29.5577V17.005H68.5062V32.5444H66.1472L58.2476 19.9916H58.2043V32.5444H56.1699V17.005H58.6588L66.4285 29.5577H66.4718ZM83.483 30.6831V32.5444H72.0124V17.005H83.3315V18.8662H74.1117V23.6276H82.6173V25.4889H74.1117V30.6831H83.483ZM93.1572 24.5799L98.6112 32.5444H96.0141L91.837 26.1598L87.5301 32.5444H84.998L90.5601 24.5799L85.3442 17.005H87.9846L91.9236 22.9567L95.8626 17.005H98.3731L93.1572 24.5799ZM103.091 17.005V32.5444H100.992V17.005H103.091ZM115.363 28.0211H109.13L107.506 32.5444H105.342L111.186 17.005H113.566L119.193 32.5444H116.899L115.363 28.0211ZM109.779 26.1598H114.605L112.311 19.3207H112.268L109.779 26.1598ZM135.685 19.667L132.092 32.5444H129.885L125.838 17.005H128.11L131.01 29.6443H131.054L134.538 17.005H136.832L140.317 29.6443H140.36L143.26 17.005H145.576L141.485 32.5444H139.278L135.728 19.667H135.685ZM159.254 30.6831V32.5444H147.783V17.005H159.102V18.8662H149.883V23.6276H158.388V25.4889H149.883V30.6831H159.254ZM164.102 17.005V30.6831H171.98V32.5444H162.003V17.005H164.102ZM176.135 17.005V30.6831H184.013V32.5444H174.036V17.005H176.135ZM196.371 29.5577V17.005H198.406V32.5444H196.046L188.147 19.9916H188.104V32.5444H186.069V17.005H188.558L196.328 29.5577H196.371ZM213.382 30.6831V32.5444H201.912V17.005H213.231V18.8662H204.011V23.6276H212.517V25.4889H204.011V30.6831H213.382ZM227.472 21.5499H225.502C225.394 19.1476 223.403 18.3901 221.65 18.3901C220.33 18.3901 218.1 18.758 218.1 21.1171C218.1 22.4373 219.031 22.8701 219.94 23.0866L224.377 24.1038C226.39 24.5799 227.904 25.7919 227.904 28.2591C227.904 31.9384 224.485 32.9556 221.823 32.9556C218.944 32.9556 217.819 32.0899 217.126 31.4623C215.806 30.2719 215.547 28.9734 215.547 27.5233H217.516C217.516 30.3368 219.81 31.1593 221.801 31.1593C223.316 31.1593 225.87 30.7697 225.87 28.5405C225.87 26.9173 225.113 26.3979 222.559 25.7919L219.377 25.056C218.36 24.818 216.066 24.1038 216.066 21.3984C216.066 18.9744 217.646 16.5938 221.412 16.5938C226.844 16.5938 227.385 19.8402 227.472 21.5499ZM241.907 21.5499H239.938C239.83 19.1476 237.838 18.3901 236.085 18.3901C234.765 18.3901 232.536 18.758 232.536 21.1171C232.536 22.4373 233.467 22.8701 234.376 23.0866L238.812 24.1038C240.825 24.5799 242.34 25.7919 242.34 28.2591C242.34 31.9384 238.921 32.9556 236.259 32.9556C233.38 32.9556 232.255 32.0899 231.562 31.4623C230.242 30.2719 229.982 28.9734 229.982 27.5233H231.952C231.952 30.3368 234.246 31.1593 236.237 31.1593C237.752 31.1593 240.306 30.7697 240.306 28.5405C240.306 26.9173 239.548 26.3979 236.994 25.7919L233.813 25.056C232.796 24.818 230.502 24.1038 230.502 21.3984C230.502 18.9744 232.082 16.5938 235.847 16.5938C241.28 16.5938 241.821 19.8402 241.907 21.5499Z" fill="white"/>
</g>
</g>
</g>
</svg>
