<svg width="140" height="140" viewBox="0 0 140 140" fill="none" xmlns="http://www.w3.org/2000/svg">
<g id="online-consultation-2 1">
<g id="online-consultation-2--health-wellness-med-online-consultation">
<g id="tablet">
<path id="Subtract" fill-rule="evenodd" clip-rule="evenodd" d="M101.579 24.5313H104.241C105.81 24.5314 107.315 25.1549 108.424 26.2645C109.534 27.3742 110.157 28.8791 110.157 30.4482V98.2595C109.449 99.7712 109.081 101.42 109.081 103.09C109.081 104.759 109.449 106.408 110.157 107.92V114.621H109.05V119.446H110.004C109.754 120.524 109.207 121.51 108.424 122.293C107.875 122.842 107.222 123.278 106.505 123.576C105.787 123.873 105.018 124.026 104.241 124.026H101.578C103.147 124.026 104.652 123.403 105.762 122.293C106.871 121.183 107.495 119.679 107.495 118.109V30.4482C107.496 29.2778 107.149 28.1336 106.499 27.1604C105.849 26.1871 104.925 25.4286 103.843 24.9809C103.125 24.6838 102.356 24.531 101.579 24.5313Z" fill="#43B9CE"/>
<path id="Subtract_2" d="M101.579 24.5313H104.241C105.81 24.5314 107.315 25.1549 108.424 26.2645C109.534 27.3742 110.157 28.8791 110.157 30.4482V98.2595C109.449 99.7713 109.082 101.42 109.082 103.09C109.082 104.759 109.449 106.408 110.157 107.92V114.621H109.05V119.446H110.004C109.754 120.524 109.207 121.51 108.424 122.293C107.875 122.842 107.222 123.278 106.505 123.576C105.787 123.873 105.018 124.026 104.241 124.026H101.578C103.147 124.026 104.652 123.403 105.762 122.293C106.871 121.183 107.495 119.679 107.495 118.109V30.4482C107.496 29.2778 107.149 28.1336 106.499 27.1604C105.849 26.1871 104.925 25.4286 103.843 24.9809C103.125 24.6838 102.356 24.531 101.579 24.5313Z" stroke="#3D747D" stroke-linecap="round" stroke-linejoin="round"/>
<path id="vector" d="M30.9512 69.9136V30.4492H107.495V118.11H30.9512V96.5777" stroke="#3D747D" stroke-linecap="round" stroke-linejoin="round"/>
<path id="vector_2" d="M30.9512 89.0692V83.3086" stroke="#3D747D" stroke-linecap="round" stroke-linejoin="round"/>
<path id="vector_3" d="M101.578 24.5313H36.8681C36.0911 24.5312 35.3216 24.6841 34.6037 24.9815C33.8858 25.2788 33.2335 25.7146 32.684 26.2641C32.1345 26.8135 31.6987 27.4659 31.4014 28.1838C31.1041 28.9017 30.9511 29.6712 30.9512 30.4482H107.495C107.495 28.879 106.872 27.3741 105.762 26.2645C104.653 25.1549 103.148 24.5314 101.578 24.5313Z" stroke="#3D747D" stroke-linecap="round" stroke-linejoin="round"/>
<path id="vector_4" d="M64.0391 27.4883H74.5044" stroke="#3D747D" stroke-linecap="round" stroke-linejoin="round"/>
<path id="vector_5" d="M30.9512 118.109C30.9511 118.886 31.1041 119.656 31.4014 120.374C31.6987 121.092 32.1345 121.744 32.684 122.294C33.2335 122.843 33.8858 123.279 34.6037 123.576C35.3216 123.873 36.0911 124.026 36.8681 124.026H101.578C102.748 124.027 103.893 123.68 104.866 123.03C105.839 122.38 106.597 121.455 107.045 120.374C107.342 119.656 107.496 118.886 107.495 118.109H30.9512Z" stroke="#3D747D" stroke-linecap="round" stroke-linejoin="round"/>
<path id="vector_6" d="M69.272 122.712C69.7083 122.712 70.1268 122.539 70.4353 122.23C70.7438 121.922 70.9171 121.503 70.9171 121.067C70.9171 120.631 70.7438 120.212 70.4353 119.904C70.1268 119.595 69.7083 119.422 69.272 119.422C68.8357 119.422 68.4173 119.595 68.1088 119.904C67.8003 120.212 67.627 120.631 67.627 121.067C67.627 121.503 67.8003 121.922 68.1088 122.23C68.4173 122.539 68.8357 122.712 69.272 122.712Z" stroke="#3D747D" stroke-linecap="round" stroke-linejoin="round"/>
</g>
<g id="person">
<path id="Subtract_3" fill-rule="evenodd" clip-rule="evenodd" d="M43.6843 67.1337C43.7185 70.1432 43.4267 73.6114 41.9652 75.9087C41.3857 76.8199 42.3074 84.5313 42.7605 88.0212L33.1561 88.843C33.0423 86.6861 32.8964 84.5195 32.6289 84.3421C31.664 83.7046 30.4853 82.9701 29.2201 82.1817C26.0493 80.2064 22.3353 77.8924 20.0828 75.9128C19.0584 75.0121 20.2175 73.8209 21.54 74.4165C21.7251 74.5017 21.9066 74.589 22.0882 74.6769C21.5163 74.119 20.9523 73.5532 20.3963 72.9795C19.608 72.1632 20.2923 71.215 21.2838 71.178C20.8948 70.8449 20.5136 70.5154 20.1414 70.1893C18.8978 69.0951 20.3076 67.6456 21.9136 68.369C23.635 69.0692 25.3045 69.8907 26.9096 70.8275C26.4955 70.426 26.1205 70.0769 25.7644 69.7459C25.0362 69.0686 24.3903 68.4667 23.6557 67.6491C22.6502 66.527 24.1885 65.2541 25.5913 66.0487C27.3244 67.0734 28.967 68.2439 30.5014 69.5476C32.9976 71.5984 35.9317 73.573 39.1136 72.7854C39.9864 71.9377 40.2098 70.9762 40.487 69.7899C40.7021 68.8668 40.9486 67.8076 41.5575 66.5591C41.9806 65.7568 43.6739 66.2142 43.6843 67.1337Z" fill="#ECF7FA"/>
<path id="vector_7" d="M42.7564 87.9918C42.3025 84.4887 41.3871 76.817 41.9652 75.9086C43.4267 73.6114 43.7185 70.1432 43.6843 67.1337C43.6739 66.2141 41.9806 65.7567 41.5575 66.559C40.1665 69.4121 40.6644 71.2778 39.1136 72.7853C35.9317 73.573 32.9976 71.5983 30.5014 69.5475C28.967 68.2441 27.3244 67.0738 25.5913 66.0493C24.1885 65.2533 22.6502 66.5269 23.6557 67.649C24.7485 68.8654 25.6464 69.6041 26.9096 70.8274C25.3045 69.8909 23.635 69.0696 21.9136 68.3696C20.3076 67.6455 18.8978 69.0958 20.1414 70.1892C20.5136 70.5153 20.8948 70.8449 21.2838 71.178C20.2923 71.215 19.608 72.1632 20.3963 72.9794C20.9374 73.538 21.5044 74.1071 22.0882 74.6769C21.9066 74.5889 21.7251 74.5016 21.54 74.4164C20.2175 73.8208 19.0584 75.0121 20.0828 75.9128C23.2347 78.6821 29.2452 82.1056 32.6289 84.3421C32.8964 84.5194 33.0423 86.6868 33.1561 88.8437" stroke="#3D747D" stroke-linecap="round" stroke-linejoin="round"/>
<path id="vector_8" d="M21.2852 71.1797C23.5769 72.7545 26.0153 74.1044 28.5665 75.2107" stroke="#3D747D" stroke-linecap="round" stroke-linejoin="round"/>
<path id="vector_9" d="M22.0879 74.6797C23.8845 75.7068 25.8389 76.7982 27.639 77.8218" stroke="#3D747D" stroke-linecap="round" stroke-linejoin="round"/>
<path id="vector_10" d="M26.9102 70.8281C28.1237 71.5871 28.3248 71.7498 29.4888 72.5535" stroke="#3D747D" stroke-linecap="round" stroke-linejoin="round"/>
<path id="vector_11" d="M39.1115 72.7852C34.5694 74.2396 34.8759 78.6135 35.1895 79.0561" stroke="#3D747D" stroke-linecap="round" stroke-linejoin="round"/>
<path id="vector_12" d="M30.8789 79.7696C32.2144 79.1118 33.7144 78.8633 35.1906 79.0553" stroke="#3D747D" stroke-linecap="round" stroke-linejoin="round"/>
<path id="vector_13" d="M85.8756 84.1168C83.9149 74.2031 79.3742 67.9014 68.8593 67.9063C54.9473 67.9146 48.5137 77.7418 45.8868 92.1523L45.4449 87.7931L29.6016 89.1491C31.0211 102.632 38.2759 115.124 46.4049 116.231C46.4315 116.864 46.4049 117.456 46.4427 118.107H87.1995C87.3042 116.472 87.3622 114.943 87.3622 113.261C87.3615 105.823 87.3943 98.8017 86.946 92.6061" stroke="#3D747D" stroke-linecap="round" stroke-linejoin="round"/>
<path id="vector_14" d="M45.8828 92.1562C46.1795 96.0696 46.7458 99.9578 47.5775 103.793" stroke="#3D747D" stroke-linecap="round" stroke-linejoin="round"/>
<path id="vector_15" d="M46.3984 116.235C52.1862 116.682 58.4014 113.561 59.735 102.639C60.133 99.4671 60.3516 96.2754 60.39 93.0781" stroke="#3D747D" stroke-linecap="round" stroke-linejoin="round"/>
<path id="vector_16" d="M72.6535 68.2188C73.0473 75.144 72.6933 77.613 72.0781 84.5201" stroke="#3D747D" stroke-linecap="round" stroke-linejoin="round"/>
<path id="vector_17" d="M63.459 68.4727C75.906 80.2731 72.1871 90.5862 71.2794 118.11" stroke="#3D747D" stroke-linecap="round" stroke-linejoin="round"/>
<path id="vector_18" d="M78.8736 70.7894C77.8418 73.182 76.6733 75.5133 75.374 77.7719L78.3898 81.3127L72.6236 89.7245L63.4584 81.6667L67.2555 77.8892C64.8332 74.9205 61.9863 72.3253 58.8066 70.1875" stroke="#3D747D" stroke-linecap="round" stroke-linejoin="round"/>
<path id="vector_19" d="M88.3254 83.3565L80.7717 85.7564C80.3871 85.8787 80.0669 86.1487 79.8814 86.5071C79.6958 86.8655 79.6602 87.2829 79.7823 87.6675L81.3855 92.7137C81.5078 93.0983 81.7778 93.4186 82.1362 93.6041C82.4946 93.7896 82.9119 93.8253 83.2966 93.7032L90.8502 91.3033C91.2348 91.181 91.5551 90.9109 91.7406 90.5526C91.9261 90.1942 91.9618 89.7768 91.8397 89.3922L90.2365 84.3459C90.1142 83.9614 89.8441 83.6411 89.4858 83.4556C89.1274 83.27 88.71 83.2344 88.3254 83.3565Z" stroke="#3D747D" stroke-linecap="round" stroke-linejoin="round"/>
<path id="vector_20" d="M88.1341 86.1758L82.5488 87.9458" stroke="#3D747D" stroke-linecap="round" stroke-linejoin="round"/>
<path id="vector_21" d="M88.5443 87.6875L82.959 89.4576" stroke="#3D747D" stroke-linecap="round" stroke-linejoin="round"/>
<path id="vector_22" d="M89.0729 89.1211L83.4883 90.8912" stroke="#3D747D" stroke-linecap="round" stroke-linejoin="round"/>
<path id="vector_23" d="M83.1328 80.7656L84.4036 84.5194" stroke="#3D747D" stroke-linecap="round" stroke-linejoin="round"/>
<path id="vector_24" d="M60.2553 58.2474C57.8812 56.411 54.0276 54.3791 51.5146 56.013C50.1849 56.8695 49.2391 58.2082 48.8761 59.7477C48.513 61.2871 48.761 62.9074 49.5678 64.2678C50.3747 65.6282 51.6775 66.6228 53.2025 67.0425C54.7275 67.4621 56.3558 67.2742 57.7451 66.5182C60.7224 64.9268 60.2553 58.2474 60.2553 58.2474Z" fill="#43B9CE"/>
<path id="vector_25" d="M60.2553 58.2474C57.8812 56.411 54.0276 54.3791 51.5146 56.013C50.1849 56.8695 49.2391 58.2082 48.8761 59.7477C48.513 61.2871 48.761 62.9074 49.5678 64.2678C50.3747 65.6282 51.6775 66.6228 53.2025 67.0425C54.7275 67.4621 56.3558 67.2742 57.7451 66.5182C60.7224 64.9268 60.2553 58.2474 60.2553 58.2474Z" stroke="#3D747D" stroke-linecap="round" stroke-linejoin="round"/>
<path id="vector_26" d="M66.4055 45.4326C63.9543 45.4997 61.6281 46.5292 59.9302 48.2983C58.2323 50.0675 57.2992 52.434 57.3329 54.8859C57.3666 57.3377 58.3643 59.6777 60.1102 61.3996C61.856 63.1214 64.2096 64.0866 66.6617 64.0863C72.4795 64.0863 74.996 59.9338 74.4297 54.234C73.9598 49.5139 71.2359 45.3034 66.4055 45.4326Z" fill="#43B9CE"/>
<path id="vector_27" d="M66.4055 45.4326C63.9543 45.4997 61.6281 46.5292 59.9302 48.2983C58.2323 50.0675 57.2992 52.434 57.3329 54.8859C57.3666 57.3377 58.3643 59.6777 60.1102 61.3996C61.856 63.1214 64.2096 64.0866 66.6617 64.0863C72.4795 64.0863 74.996 59.9338 74.4297 54.234C73.9598 49.5139 71.2359 45.3034 66.4055 45.4326Z" stroke="#3D747D" stroke-linecap="round" stroke-linejoin="round"/>
<path id="vector_28" d="M72.8426 55.0141C72.3126 52.5143 70.4448 50.7925 68.6705 51.1688C67.2559 51.4691 66.3307 53.0122 66.2818 54.8912C65.6715 54.3431 64.4147 53.6846 64.0062 54.2223C63.5768 54.7809 64.8483 56.4832 66.4543 56.7031C65.5612 60.7307 64.4656 65.7203 63.8086 68.6195C63.8086 68.6195 65.9201 70.0893 69.7514 70.0893C72.3049 70.0893 72.566 68.2976 72.566 68.2976L71.7847 59.5813C72.7769 58.6422 73.2371 56.8756 72.8426 55.0148V55.0141Z" fill="#ECF7FA"/>
<path id="vector_29" d="M72.8426 55.0141C72.3126 52.5143 70.4448 50.7925 68.6705 51.1688C67.2559 51.4691 66.3307 53.0122 66.2818 54.8912C65.6715 54.3431 64.4147 53.6846 64.0062 54.2223C63.5768 54.7809 64.8483 56.4832 66.4543 56.7031C65.5612 60.7307 64.4656 65.7203 63.8086 68.6195C63.8086 68.6195 65.9201 70.0893 69.7514 70.0893C72.3049 70.0893 72.566 68.2976 72.566 68.2976L71.7847 59.5813C72.7769 58.6422 73.2371 56.8756 72.8426 55.0148V55.0141Z" stroke="#3D747D" stroke-linecap="round" stroke-linejoin="round"/>
<path id="vector_30" d="M68.0078 59.0312C68.7514 60.624 70.4328 61.6657 71.9355 61.031L71.7846 59.5759C71.207 59.9915 70.4907 60.1669 69.7864 60.0653C69.082 59.9638 68.4445 59.5931 68.0078 59.0312Z" fill="#43B9CE"/>
<path id="vector_31" d="M68.0078 59.0312C68.7514 60.624 70.4328 61.6657 71.9355 61.031L71.7846 59.5759C71.207 59.9915 70.4907 60.1669 69.7864 60.0653C69.082 59.9638 68.4445 59.5931 68.0078 59.0312Z" stroke="#3D747D" stroke-linecap="round" stroke-linejoin="round"/>
</g>
<g id="bottle">
<path id="vector_32" d="M28.199 98.8555H3.66602V124.027H28.199V98.8555Z" stroke="#3D747D" stroke-linecap="round" stroke-linejoin="round"/>
<path id="vector_33" d="M28.1989 103.078H12.873V118.404H28.1989V103.078Z" stroke="#3D747D" stroke-linecap="round" stroke-linejoin="round"/>
<path id="vector_34" d="M17.668 108.172H25.295" stroke="#3D747D" stroke-linecap="round" stroke-linejoin="round"/>
<path id="vector_35" d="M17.668 110.738H25.295" stroke="#3D747D" stroke-linecap="round" stroke-linejoin="round"/>
<path id="vector_36" d="M17.668 113.578H25.295" stroke="#3D747D" stroke-linecap="round" stroke-linejoin="round"/>
<path id="vector_37" d="M22.8562 94.2227H9.00781V98.8556H22.8562V94.2227Z" fill="#43B9CE"/>
<path id="vector_38" d="M22.8562 94.2227H9.00781V98.8556H22.8562V94.2227Z" stroke="#3D747D" stroke-linecap="round" stroke-linejoin="round"/>
</g>
<g id="elements">
<g id="group">
<path id="vector_39" d="M18.2578 52.1875H25.9197" stroke="#3D747D" stroke-linecap="round" stroke-linejoin="round"/>
<path id="vector_40" d="M22.0879 56.0174V48.3555" stroke="#3D747D" stroke-linecap="round" stroke-linejoin="round"/>
</g>
<g id="group_2">
<path id="vector_41" d="M10.7832 66.4258H14.9629" stroke="#3D747D" stroke-linecap="round" stroke-linejoin="round"/>
<path id="vector_42" d="M12.873 68.515V64.3359" stroke="#3D747D" stroke-linecap="round" stroke-linejoin="round"/>
</g>
<path id="vector_43" d="M100.617 17.6182L102.986 21.5249L105.772 15.6875" stroke="#3D747D" stroke-linecap="round" stroke-linejoin="round"/>
</g>
<g id="chat bubble">
<path id="vector_44" d="M113.925 36.2539C99.1311 36.2539 88.7181 48.0969 92.1765 59.9427L85.8105 65.026L94.4584 64.79C98.3176 70.545 105.586 74.4258 113.925 74.4258C126.301 74.4272 136.334 65.8827 136.334 55.3392C136.334 44.7956 126.301 36.2539 113.925 36.2539Z" fill="#ECF7FA"/>
<path id="vector_45" d="M113.925 36.2539C99.1311 36.2539 88.7181 48.0969 92.1765 59.9427L85.8105 65.026L94.4584 64.79C98.3176 70.545 105.586 74.4258 113.925 74.4258C126.301 74.4272 136.334 65.8827 136.334 55.3392C136.334 44.7956 126.301 36.2539 113.925 36.2539Z" stroke="#3D747D" stroke-linecap="round" stroke-linejoin="round"/>
<path id="vector_46" d="M105.771 51.9766H121.66" stroke="#3D747D" stroke-linecap="round" stroke-linejoin="round"/>
<path id="vector_47" d="M105.771 55.6758H121.66" stroke="#3D747D" stroke-linecap="round" stroke-linejoin="round"/>
<path id="vector_48" d="M105.771 59.75H121.66" stroke="#3D747D" stroke-linecap="round" stroke-linejoin="round"/>
</g>
<g id="pills">
<path id="vector_49" d="M131.85 114.625H109.049V119.45H131.85V114.625Z" stroke="#3D747D" stroke-linecap="round" stroke-linejoin="round"/>
<path id="vector_50" d="M134.27 119.488H111.469V124.313H134.27V119.488Z" stroke="#3D747D" stroke-linecap="round" stroke-linejoin="round"/>
<path id="Subtract_4" fill-rule="evenodd" clip-rule="evenodd" d="M120.449 91.6758H122.869C125.112 91.6943 127.3 92.3739 129.158 93.6296C131.017 94.8853 132.464 96.6613 133.318 98.7353C134.173 100.809 134.396 103.089 133.961 105.29C133.526 107.49 132.452 109.514 130.873 111.107C128.754 113.242 125.877 114.453 122.869 114.477H120.449L120.386 114.476C122.02 114.488 123.638 114.148 125.129 113.479C126.62 112.81 127.95 111.827 129.027 110.598C130.105 109.369 130.905 107.923 131.373 106.357C131.842 104.791 131.968 103.143 131.742 101.524C131.484 99.6694 130.773 97.907 129.672 96.3931C128.57 94.8791 127.112 93.6603 125.426 92.8447C123.927 92.1188 122.287 91.7309 120.621 91.7081C118.956 91.6853 117.306 92.0282 115.787 92.7127C117.25 92.0416 118.839 91.6882 120.449 91.6758Z" fill="#43B9CE"/>
<path id="Subtract_5" d="M120.449 91.6758H122.869C125.112 91.6943 127.3 92.3739 129.158 93.6296C131.017 94.8853 132.464 96.6613 133.318 98.7353C134.173 100.809 134.396 103.089 133.961 105.29C133.526 107.49 132.452 109.514 130.873 111.107C128.754 113.242 125.877 114.453 122.869 114.477H120.449L120.386 114.476C122.02 114.488 123.638 114.148 125.129 113.479C126.62 112.81 127.95 111.827 129.027 110.598C130.105 109.369 130.905 107.923 131.373 106.357C131.842 104.791 131.968 103.143 131.742 101.524C131.484 99.6694 130.773 97.907 129.672 96.3931C128.57 94.8791 127.112 93.6603 125.426 92.8447C123.927 92.1188 122.287 91.7309 120.621 91.7081C118.956 91.6853 117.306 92.0282 115.787 92.7127C117.25 92.0416 118.839 91.6882 120.449 91.6758Z" stroke="#3D747D" stroke-linecap="round" stroke-linejoin="round"/>
<path id="vector_51" d="M130.284 97.3276C129.534 96.0259 128.533 94.8855 127.34 93.9724C126.147 93.0592 124.784 92.3914 123.332 92.0072C121.879 91.6231 120.365 91.5303 118.876 91.7343C117.388 91.9382 115.954 92.4348 114.658 93.1955C113.362 93.9561 112.23 94.9658 111.326 96.1662C110.423 97.3666 109.765 98.7341 109.393 100.19C109.02 101.645 108.939 103.16 109.155 104.647C109.371 106.134 109.879 107.564 110.649 108.854C112.19 111.432 114.688 113.297 117.598 114.042C120.508 114.787 123.594 114.351 126.185 112.831C128.775 111.31 130.659 108.828 131.427 105.924C132.195 103.02 131.784 99.9299 130.284 97.3276Z" stroke="#3D747D" stroke-linecap="round" stroke-linejoin="round"/>
<path id="vector_52" d="M112.639 111.361L128.738 95.2617" stroke="#3D747D" stroke-linecap="round" stroke-linejoin="round"/>
</g>
</g>
</g>
</svg>
