<svg width="44" height="36" viewBox="0 0 44 36" fill="none" xmlns="http://www.w3.org/2000/svg">
<path id="&#226;&#128;&#156;" d="M0 35.2L0 23.6296C0 19.1753 0.711443 15.0469 2.13433 11.2444C3.66667 7.44197 6.23881 3.69383 9.85075 0L16.2537 4.72592C13.8458 7.33333 12.0945 9.77777 11 12.0593C9.90547 14.2321 9.24876 16.4049 9.02985 18.5778H16.7463V35.2H0ZM27.2537 35.2V23.6296C27.2537 19.1753 27.9652 15.0469 29.3881 11.2444C30.9204 7.44197 33.4925 3.69383 37.1045 0L43.5075 4.72592C41.0995 7.33333 39.3483 9.77777 38.2537 12.0593C37.1592 14.2321 36.5025 16.4049 36.2836 18.5778H44V35.2H27.2537Z" fill="#43B9CE" fill-opacity="0.2"/>
</svg>
