<svg width="160" height="160" viewBox="0 0 160 160" fill="none" xmlns="http://www.w3.org/2000/svg">
<g id="savings-calendar-3">
<g id="savings-calendar--finance-savings-calendar">
<g id="coins">
<path id="Subtract" d="M31.3438 97.3079L35.0584 98.2129C38.3119 99.0531 41.5981 96.4541 43.7151 92.666V77.1313C43.1127 76.5408 42.4096 76.1242 41.6268 75.9167L37.9129 75.0078" stroke="#3D747D" stroke-linejoin="round"/>
<path id="Subtract_2" fill-rule="evenodd" clip-rule="evenodd" d="M31.3445 97.3047L31.3438 97.3079L35.0584 98.2129C38.3119 99.0531 41.5981 96.4541 43.7151 92.666V77.1313C43.1127 76.5408 42.4096 76.1242 41.6268 75.9167L37.9129 75.0078V75.0094C40.9964 75.8353 42.8365 79.8995 42.1822 85.1177C41.4041 91.3269 37.3854 96.8347 33.2055 97.4045C32.5846 97.4939 31.9523 97.46 31.3445 97.3047Z" fill="#43B9CE"/>
<path id="vector" d="M36.0302 74.9034C40.2093 74.3336 42.9616 78.9086 42.1836 85.1178C41.4055 91.327 37.3868 96.8348 33.2068 97.4046C29.0269 97.9744 26.2754 93.3995 27.0535 87.1854C27.8315 80.9714 31.8534 75.4724 36.0302 74.9034Z" stroke="#3D747D" stroke-linecap="round" stroke-linejoin="round"/>
<path id="vector_2" d="M31.9688 88.076L33.8488 89.0256C35.4025 89.8108 36.582 86.9923 34.8272 85.8767L33.5272 85.2199C31.7525 84.0924 32.9686 81.297 34.5056 82.071L36.3019 82.9783" stroke="#3D747D" stroke-linecap="round" stroke-linejoin="round"/>
<path id="vector_3" d="M32.8281 89.8923L35.5126 81.2539" stroke="#3D747D" stroke-linecap="round" stroke-linejoin="round"/>
<path id="vector_4" d="M41.6645 98.6719H15.9824V103.347H41.6645V98.6719Z" stroke="#3D747D" stroke-linecap="round" stroke-linejoin="round"/>
<path id="Subtract_3" d="M43.7165 103.348V104.893C43.7165 105.985 43.888 107.037 44.2057 108.023H20.7109V103.348H43.7165Z" stroke="#3D747D" stroke-linejoin="round"/>
<path id="Subtract_4" d="M44.2051 108.023C44.7933 109.845 45.8816 111.466 47.346 112.699H22.4668V108.023H44.2051Z" stroke="#3D747D" stroke-linejoin="round"/>
</g>
<g id="cash">
<path id="vector_5" d="M127.871 82.9609H155.809V97.0712H152.218" stroke="#3D747D" stroke-linecap="round" stroke-linejoin="round"/>
<path id="vector_6" d="M127.871 86.6094H152.161V100.72H148.477" stroke="#3D747D" stroke-linecap="round" stroke-linejoin="round"/>
<path id="vector_7" d="M148.481 90.2891H127.871V104.399H148.481V90.2891Z" stroke="#3D747D" stroke-linecap="round" stroke-linejoin="round"/>
<path id="vector_8" d="M132.076 99.5587H133.723C133.869 99.559 134.013 99.5306 134.148 99.475C134.282 99.4194 134.405 99.3377 134.508 99.2347C134.611 99.1318 134.692 99.0094 134.748 98.8748C134.804 98.7402 134.832 98.5959 134.832 98.4503C134.832 98.3046 134.804 98.1603 134.748 98.0257C134.692 97.8911 134.611 97.7688 134.508 97.6658C134.405 97.5628 134.282 97.4812 134.148 97.4256C134.013 97.37 133.869 97.3415 133.723 97.3418H132.587C132.441 97.3422 132.297 97.3137 132.162 97.2581C132.028 97.2025 131.905 97.1209 131.802 97.0179C131.699 96.9149 131.618 96.7926 131.562 96.658C131.507 96.5234 131.478 96.3791 131.479 96.2334C131.478 96.0878 131.507 95.9435 131.562 95.8089C131.618 95.6743 131.699 95.5519 131.802 95.4489C131.905 95.346 132.028 95.2643 132.162 95.2087C132.297 95.1531 132.441 95.1247 132.587 95.125H134.16" stroke="#3D747D" stroke-linecap="round" stroke-linejoin="round"/>
<path id="vector_9" d="M133.154 100.397V94.3164" stroke="#3D747D" stroke-linecap="round" stroke-linejoin="round"/>
</g>
<g id="elements">
<g id="group">
<path id="vector_10" d="M130.021 47.3945V54.2214" stroke="#3D747D" stroke-linecap="round" stroke-linejoin="round"/>
<path id="vector_11" d="M126.604 50.8086H133.433" stroke="#3D747D" stroke-linecap="round" stroke-linejoin="round"/>
</g>
<g id="group_2">
<path id="vector_12" d="M133.086 113.637L136.005 116.556" stroke="#3D747D" stroke-linecap="round" stroke-linejoin="round"/>
<path id="vector_13" d="M133.086 116.556L136.005 113.637" stroke="#3D747D" stroke-linecap="round" stroke-linejoin="round"/>
</g>
<g id="group_3">
<path id="vector_14" d="M14.3867 76.6758V83.5067" stroke="#3D747D" stroke-linecap="round" stroke-linejoin="round"/>
<path id="vector_15" d="M10.9727 80.0898H17.8019" stroke="#3D747D" stroke-linecap="round" stroke-linejoin="round"/>
</g>
<g id="group_4">
<path id="vector_16" d="M6.46875 91.4141V95.973" stroke="#3D747D" stroke-linecap="round" stroke-linejoin="round"/>
<path id="vector_17" d="M4.18945 93.6914H8.74843" stroke="#3D747D" stroke-linecap="round" stroke-linejoin="round"/>
</g>
</g>
<g id="calendar">
<path id="Subtract_5" fill-rule="evenodd" clip-rule="evenodd" d="M56.0649 51.4414H117.668C123.304 51.4414 127.873 56.01 127.873 61.6462V102.753C127.873 106.117 126.245 109.102 123.733 110.96C125.033 109.206 125.734 107.079 125.73 104.895V63.7889C125.73 58.1526 121.162 53.584 115.525 53.584H53.9222C51.6511 53.584 49.5524 54.3262 47.8574 55.5814C48.8055 54.2966 50.0422 53.2525 51.4678 52.5334C52.8934 51.8143 54.4681 51.4402 56.0649 51.4414Z" fill="#43B9CE"/>
<path id="vector_18" d="M47.8281 55.6205C48.775 54.3245 50.0145 53.2704 51.4459 52.5442C52.8773 51.8179 54.46 51.4401 56.0651 51.4414H117.668C123.305 51.4414 127.873 56.01 127.873 61.6462V102.753C127.874 104.358 127.496 105.94 126.77 107.372C126.044 108.803 124.99 110.042 123.694 110.989" stroke="#3D747D" stroke-linecap="round" stroke-linejoin="round"/>
<path id="vector_19" d="M115.525 53.582H53.9216C48.2853 53.582 43.7168 58.1506 43.7168 63.7869V104.893C43.7168 110.53 48.2853 115.098 53.9216 115.098H115.525C121.161 115.098 125.73 110.53 125.73 104.893V63.7869C125.73 58.1506 121.161 53.582 115.525 53.582Z" stroke="#3D747D" stroke-linecap="round" stroke-linejoin="round"/>
<path id="vector_20" d="M84.7232 95.8359H68.3379V107.331H84.7232V95.8359Z" stroke="#3D747D" stroke-linecap="round" stroke-linejoin="round"/>
<path id="vector_21" d="M101.108 95.8359H84.7227V107.331H101.108V95.8359Z" stroke="#3D747D" stroke-linecap="round" stroke-linejoin="round"/>
<path id="vector_22" d="M68.3385 95.8359H51.9531V107.331H68.3385V95.8359Z" stroke="#3D747D" stroke-linecap="round" stroke-linejoin="round"/>
<path id="vector_23" d="M117.503 95.8359H101.117V107.331H117.503V95.8359Z" fill="#43B9CE"/>
<path id="vector_24" d="M84.7232 84.3398H68.3379V95.835H84.7232V84.3398Z" fill="#43B9CE"/>
<path id="vector_25" d="M101.108 84.3398H84.7227V95.835H101.108V84.3398Z" fill="#ECF7FA"/>
<path id="vector_26" d="M68.3385 84.3398H51.9531V95.835H68.3385V84.3398Z" stroke="#3D747D" stroke-linecap="round" stroke-linejoin="round"/>
<path id="vector_27" d="M117.503 84.3398H101.117V95.835H117.503V84.3398Z" stroke="#3D747D" stroke-linecap="round" stroke-linejoin="round"/>
<path id="vector_28" d="M84.7232 61.3516H68.3379V72.8468H84.7232V61.3516Z" stroke="#3D747D" stroke-linecap="round" stroke-linejoin="round"/>
<path id="vector_29" d="M101.108 61.3516H84.7227V72.8468H101.108V61.3516Z" stroke="#3D747D" stroke-linecap="round" stroke-linejoin="round"/>
<path id="vector_30" d="M68.3385 61.3516H51.9531V72.8468H68.3385V61.3516Z" fill="#43B9CE"/>
<path id="vector_31" d="M117.503 61.3516H101.117V72.8468H117.503V61.3516Z" stroke="#3D747D" stroke-linecap="round" stroke-linejoin="round"/>
<path id="vector_32" d="M84.7232 72.8477H68.3379V84.3428H84.7232V72.8477Z" fill="#ECF7FA"/>
<path id="vector_33" d="M101.108 72.8477H84.7227V84.3428H101.108V72.8477Z" stroke="#3D747D" stroke-linecap="round" stroke-linejoin="round"/>
<path id="vector_34" d="M68.3385 72.8477H51.9531V84.3428H68.3385V72.8477Z" stroke="#3D747D" stroke-linecap="round" stroke-linejoin="round"/>
<path id="vector_35" d="M117.503 72.8477H101.117V84.3428H117.503V72.8477Z" fill="#ECF7FA"/>
<path id="vector_36" d="M117.503 95.8359H101.117V107.331H117.503V95.8359Z" stroke="#3D747D" stroke-linecap="round" stroke-linejoin="round"/>
<path id="vector_37" d="M84.7232 84.3398H68.3379V95.835H84.7232V84.3398Z" stroke="#3D747D" stroke-linecap="round" stroke-linejoin="round"/>
<path id="vector_38" d="M101.108 84.3398H84.7227V95.835H101.108V84.3398Z" stroke="#3D747D" stroke-linecap="round" stroke-linejoin="round"/>
<path id="vector_39" d="M68.3385 61.3516H51.9531V72.8468H68.3385V61.3516Z" stroke="#3D747D" stroke-linecap="round" stroke-linejoin="round"/>
<path id="vector_40" d="M84.7232 72.8477H68.3379V84.3428H84.7232V72.8477Z" stroke="#3D747D" stroke-linecap="round" stroke-linejoin="round"/>
<path id="vector_41" d="M117.503 72.8477H101.117V84.3428H117.503V72.8477Z" stroke="#3D747D" stroke-linecap="round" stroke-linejoin="round"/>
<path id="vector_42" d="M60.0207 57.5743C57.7919 57.0453 56.5981 53.467 57.3538 49.5824C58.1095 45.6977 60.5299 42.9781 62.7563 43.5072C64.9827 44.0363 66.1789 47.6145 65.4232 51.4992" stroke="#3D747D" stroke-linecap="round" stroke-linejoin="round"/>
<path id="vector_43" d="M60.021 59.2568C60.4684 59.2568 60.8975 59.079 61.2138 58.7627C61.5302 58.4463 61.7079 58.0172 61.7079 57.5698C61.7079 57.1224 61.5302 56.6933 61.2138 56.3769C60.8975 56.0605 60.4684 55.8828 60.021 55.8828C59.5735 55.8828 59.1445 56.0605 58.8281 56.3769C58.5117 56.6933 58.334 57.1224 58.334 57.5698C58.334 58.0172 58.5117 58.4463 58.8281 58.7627C59.1445 59.079 59.5735 59.2568 60.021 59.2568Z" fill="#43B9CE"/>
<path id="vector_44" d="M60.021 59.2568C60.4684 59.2568 60.8975 59.079 61.2138 58.7627C61.5302 58.4463 61.7079 58.0172 61.7079 57.5698C61.7079 57.1224 61.5302 56.6933 61.2138 56.3769C60.8975 56.0605 60.4684 55.8828 60.021 55.8828C59.5735 55.8828 59.1445 56.0605 58.8281 56.3769C58.5117 56.6933 58.334 57.1224 58.334 57.5698C58.334 58.0172 58.5117 58.4463 58.8281 58.7627C59.1445 59.079 59.5735 59.2568 60.021 59.2568Z" stroke="#3D747D" stroke-linecap="round" stroke-linejoin="round"/>
<path id="vector_45" d="M76.2589 57.5743C74.0309 57.0453 72.8363 53.467 73.592 49.5824C74.3477 45.6977 76.7681 42.9781 78.9945 43.5072C81.2209 44.0363 82.4179 47.6145 81.6614 51.4992" stroke="#3D747D" stroke-linecap="round" stroke-linejoin="round"/>
<path id="vector_46" d="M76.2592 59.2568C76.7067 59.2568 77.1357 59.079 77.4521 58.7627C77.7685 58.4463 77.9462 58.0172 77.9462 57.5698C77.9462 57.1224 77.7685 56.6933 77.4521 56.3769C77.1357 56.0605 76.7067 55.8828 76.2592 55.8828C75.8118 55.8828 75.3827 56.0605 75.0664 56.3769C74.75 56.6933 74.5723 57.1224 74.5723 57.5698C74.5723 58.0172 74.75 58.4463 75.0664 58.7627C75.3827 59.079 75.8118 59.2568 76.2592 59.2568Z" fill="#43B9CE"/>
<path id="vector_47" d="M76.2592 59.2568C76.7067 59.2568 77.1357 59.079 77.4521 58.7627C77.7685 58.4463 77.9462 58.0172 77.9462 57.5698C77.9462 57.1224 77.7685 56.6933 77.4521 56.3769C77.1357 56.0605 76.7067 55.8828 76.2592 55.8828C75.8118 55.8828 75.3827 56.0605 75.0664 56.3769C74.75 56.6933 74.5723 57.1224 74.5723 57.5698C74.5723 58.0172 74.75 58.4463 75.0664 58.7627C75.3827 59.079 75.8118 59.2568 76.2592 59.2568Z" stroke="#3D747D" stroke-linecap="round" stroke-linejoin="round"/>
<path id="vector_48" d="M92.9171 57.5743C90.6891 57.0453 89.4945 53.467 90.2502 49.5824C91.0059 45.6977 93.4263 42.9781 95.6527 43.5072C97.8791 44.0363 99.0753 47.6145 98.3196 51.4992" stroke="#3D747D" stroke-linecap="round" stroke-linejoin="round"/>
<path id="vector_49" d="M92.9159 59.2564C93.1405 59.2612 93.3638 59.2212 93.5727 59.1387C93.7816 59.0561 93.9719 58.9327 94.1324 58.7756C94.293 58.6185 94.4205 58.4309 94.5076 58.2238C94.5947 58.0168 94.6396 57.7944 94.6396 57.5698C94.6396 57.3452 94.5947 57.1228 94.5076 56.9157C94.4205 56.7087 94.293 56.5211 94.1324 56.364C93.9719 56.2069 93.7816 56.0835 93.5727 56.0009C93.3638 55.9183 93.1405 55.8783 92.9159 55.8832C92.475 55.8928 92.0553 56.0747 91.7468 56.39C91.4384 56.7052 91.2656 57.1287 91.2656 57.5698C91.2656 58.0108 91.4384 58.4344 91.7468 58.7496C92.0553 59.0649 92.475 59.2468 92.9159 59.2564Z" fill="#43B9CE"/>
<path id="vector_50" d="M92.9159 59.2564C93.1405 59.2612 93.3638 59.2212 93.5727 59.1387C93.7816 59.0561 93.9719 58.9327 94.1324 58.7756C94.293 58.6185 94.4205 58.4309 94.5076 58.2238C94.5947 58.0168 94.6396 57.7944 94.6396 57.5698C94.6396 57.3452 94.5947 57.1228 94.5076 56.9157C94.4205 56.7087 94.293 56.5211 94.1324 56.364C93.9719 56.2069 93.7816 56.0835 93.5727 56.0009C93.3638 55.9183 93.1405 55.8783 92.9159 55.8832C92.475 55.8928 92.0553 56.0747 91.7468 56.39C91.4384 56.7052 91.2656 57.1287 91.2656 57.5698C91.2656 58.0108 91.4384 58.4344 91.7468 58.7496C92.0553 59.0649 92.475 59.2468 92.9159 59.2564Z" stroke="#3D747D" stroke-linecap="round" stroke-linejoin="round"/>
<path id="vector_51" d="M109.31 57.5743C107.081 57.0453 105.887 53.467 106.643 49.5824C107.399 45.6977 109.819 42.9781 112.045 43.5072C114.272 44.0363 115.477 47.5594 114.723 51.4441" stroke="#3D747D" stroke-linecap="round" stroke-linejoin="round"/>
<path id="vector_52" d="M109.308 59.2564C109.533 59.2612 109.756 59.2212 109.965 59.1387C110.174 59.0561 110.364 58.9327 110.525 58.7756C110.686 58.6185 110.813 58.4309 110.9 58.2238C110.987 58.0168 111.032 57.7944 111.032 57.5698C111.032 57.3452 110.987 57.1228 110.9 56.9157C110.813 56.7087 110.686 56.5211 110.525 56.364C110.364 56.2069 110.174 56.0835 109.965 56.0009C109.756 55.9183 109.533 55.8783 109.308 55.8832C108.868 55.8928 108.448 56.0747 108.139 56.39C107.831 56.7052 107.658 57.1287 107.658 57.5698C107.658 58.0108 107.831 58.4344 108.139 58.7496C108.448 59.0649 108.868 59.2468 109.308 59.2564Z" fill="#43B9CE"/>
<path id="vector_53" d="M109.308 59.2564C109.533 59.2612 109.756 59.2212 109.965 59.1387C110.174 59.0561 110.364 58.9327 110.525 58.7756C110.686 58.6185 110.813 58.4309 110.9 58.2238C110.987 58.0168 111.032 57.7944 111.032 57.5698C111.032 57.3452 110.987 57.1228 110.9 56.9157C110.813 56.7087 110.686 56.5211 110.525 56.364C110.364 56.2069 110.174 56.0835 109.965 56.0009C109.756 55.9183 109.533 55.8783 109.308 55.8832C108.868 55.8928 108.448 56.0747 108.139 56.39C107.831 56.7052 107.658 57.1287 107.658 57.5698C107.658 58.0108 107.831 58.4344 108.139 58.7496C108.448 59.0649 108.868 59.2468 109.308 59.2564Z" stroke="#3D747D" stroke-linecap="round" stroke-linejoin="round"/>
</g>
</g>
</g>
</svg>
