<svg width="140" height="140" viewBox="0 0 140 140" fill="none" xmlns="http://www.w3.org/2000/svg">
<g id="secured-4">
<g id="secured--interface-secured">
<g id="shield">
<path id="vector" d="M44.7937 77.1468C39.4561 66.4652 34.6162 55.8847 27.5305 37.8477C27.5305 37.8477 26.0612 39.8848 26.0645 39.8713C30.5103 51.1897 36.0829 64.7712 43.0771 78.6689C54.0395 100.717 80.4293 101.106 92.6027 82.91C79.7442 99.2305 54.9216 97.4142 44.7937 77.1468Z" fill="#43B9CE"/>
<path id="vector_2" d="M44.7937 77.1468C39.4561 66.4652 34.6162 55.8847 27.5305 37.8477C27.5305 37.8477 26.0612 39.8848 26.0645 39.8713C30.5103 51.1897 36.0829 64.7712 43.0771 78.6689C54.0395 100.717 80.4293 101.106 92.6027 82.91C79.7442 99.2305 54.9216 97.4142 44.7937 77.1468Z" stroke="#3D747D" stroke-linecap="round" stroke-linejoin="round"/>
<path id="vector_3" d="M47.5411 55.7338C47.5131 55.3505 47.5643 54.9655 47.6915 54.6027C47.8187 54.24 48.0192 53.9074 48.2806 53.6255C48.5419 53.3436 48.8585 53.1186 49.2106 52.9643C49.5626 52.8101 49.9427 52.73 50.3271 52.7289H70.5185V9C70.5185 9 27.5016 37.9698 27.5313 37.8494C34.6169 55.8864 39.4568 66.467 44.7944 77.1486C50.3754 88.3163 60.4472 93.8998 70.5185 93.8998V84.3096C58.4558 83.7597 48.6614 71.4144 47.5411 55.7345V55.7338Z" fill="#ECF7FA"/>
<path id="vector_4" d="M70.5185 9C70.5185 9 27.5016 37.9698 27.5313 37.8494C34.6169 55.8864 39.4568 66.467 44.7944 77.1486C50.3754 88.3163 60.4472 93.8998 70.5185 93.8998C80.5897 93.8998 90.6616 88.3157 96.2419 77.1486C101.529 66.5713 106.378 55.9978 113.506 37.8494C113.535 37.9698 70.5185 9 70.5185 9Z" stroke="#3D747D" stroke-linecap="round" stroke-linejoin="round"/>
<path id="vector_5" d="M70.5176 52.7289V9" stroke="#3D747D" stroke-linecap="round" stroke-linejoin="round"/>
<path id="vector_6" d="M70.5176 93.8989V84.3086" stroke="#3D747D" stroke-linecap="round" stroke-linejoin="round"/>
</g>
<g id="lock">
<path id="vector_7" d="M92.3907 52.7266H50.3268C49.9423 52.7274 49.5621 52.8074 49.2099 52.9616C48.8576 53.1158 48.541 53.3409 48.2796 53.6229C48.0182 53.9049 47.8177 54.2377 47.6906 54.6006C47.5635 54.9635 47.5125 55.3486 47.5408 55.7321C48.6869 71.7745 58.9139 84.3252 71.3591 84.3252C83.8042 84.3252 94.0306 71.7732 95.1767 55.7308C95.2047 55.3474 95.1535 54.9624 95.0264 54.5996C94.8992 54.2369 94.6988 53.9041 94.4375 53.6222C94.1761 53.3404 93.8595 53.1154 93.5073 52.9613C93.1552 52.8072 92.7751 52.7273 92.3907 52.7266Z" stroke="#3D747D" stroke-linecap="round" stroke-linejoin="round"/>
<path id="vector_8" d="M92.1208 52.727C92.1208 38.4707 82.9059 26.9141 71.5379 26.9141C60.17 26.9141 50.9551 38.4707 50.9551 52.727H60.5872C60.5872 43.1277 65.4915 35.3467 71.5412 35.3467C77.5909 35.3467 82.4951 43.1277 82.4951 52.727H92.1208Z" fill="#43B9CE"/>
<path id="vector_9" d="M92.1208 52.727C92.1208 38.4707 82.9059 26.9141 71.5379 26.9141C60.17 26.9141 50.9551 38.4707 50.9551 52.727H60.5872C60.5872 43.1277 65.4915 35.3467 71.5412 35.3467C77.5909 35.3467 82.4951 43.1277 82.4951 52.727H92.1208Z" stroke="#3D747D" stroke-linecap="round" stroke-linejoin="round"/>
<path id="vector_10" d="M77.0355 74.3602L72.26 62.6915C72.7782 62.5203 73.2183 62.17 73.5015 61.7036C73.7847 61.2371 73.8924 60.685 73.8053 60.1463C73.7168 59.6091 73.4402 59.1207 73.0251 58.7684C72.6099 58.4161 72.0831 58.2227 71.5386 58.2227C70.9941 58.2227 70.4673 58.4161 70.0521 58.7684C69.637 59.1207 69.3605 59.6091 69.2719 60.1463C69.185 60.6849 69.2927 61.2368 69.5758 61.7032C69.8588 62.1696 70.2987 62.5199 70.8165 62.6915L66.041 74.3602H77.0355Z" fill="#43B9CE"/>
<path id="vector_11" d="M77.0355 74.3602L72.26 62.6915C72.7782 62.5203 73.2183 62.17 73.5015 61.7036C73.7847 61.2371 73.8924 60.685 73.8053 60.1463C73.7168 59.6091 73.4402 59.1207 73.0251 58.7684C72.6099 58.4161 72.0831 58.2227 71.5386 58.2227C70.9941 58.2227 70.4673 58.4161 70.0521 58.7684C69.637 59.1207 69.3605 59.6091 69.2719 60.1463C69.185 60.6849 69.2927 61.2368 69.5758 61.7032C69.8588 62.1696 70.2987 62.5199 70.8165 62.6915L66.041 74.3602H77.0355Z" stroke="#3D747D" stroke-linecap="round" stroke-linejoin="round"/>
</g>
<g id="hand">
<path id="vector_12" d="M30.8222 94.9198C24.7577 94.8373 19.4297 94.7685 15 94.6719V118.607H30.8222V94.9198Z" stroke="#3D747D" stroke-linecap="round" stroke-linejoin="round"/>
<path id="vector_13" d="M124.137 109.576C123.193 107.551 121.798 106.357 118.704 106.536C119.177 106.044 119.49 105.42 119.602 104.747C119.713 104.074 119.617 103.382 119.327 102.764C118.4 100.775 116.634 99.9126 113.33 100.298C113.592 99.5049 113.532 98.6407 113.165 97.8903C112.12 95.6497 110.01 94.8358 105.838 95.6316C106.061 94.8332 106.002 93.982 105.67 93.2223C103.829 88.338 89.2177 94.7405 74.7605 100.207C65.4645 103.721 55.3565 91.7878 36.9345 94.4289C34.9086 94.7014 32.8696 94.8647 30.8262 94.9182V118.606H39.0676C72.8856 135.293 85.4711 132.883 97.9394 126.495C107.073 121.815 112.205 119.498 121.774 114.692C123.591 113.781 125.168 111.791 124.137 109.576Z" stroke="#3D747D" stroke-linecap="round" stroke-linejoin="round"/>
<path id="vector_14" d="M63.1742 120.486C65.9125 120.686 82.3058 124.963 88.613 126.102C94.8089 127.22 99.7016 118.118 91.3011 114.89C73.0381 107.872 73.051 102.148 53.6934 98.8477" stroke="#3D747D" stroke-linecap="round" stroke-linejoin="round"/>
<path id="vector_15" d="M93.6309 116.163C109.771 108.109 114.115 106.799 118.701 106.535" stroke="#3D747D" stroke-linecap="round" stroke-linejoin="round"/>
<path id="vector_16" d="M84.0723 111.763C99.1772 104.702 108.1 100.901 113.327 100.297" stroke="#3D747D" stroke-linecap="round" stroke-linejoin="round"/>
<path id="vector_17" d="M78.8828 106.039C79.5666 105.787 82.8335 104.513 83.498 104.208C94.2755 99.2738 101.285 96.4968 105.833 95.6289" stroke="#3D747D" stroke-linecap="round" stroke-linejoin="round"/>
<path id="vector_18" d="M22.9116 108.262C22.507 108.262 22.1064 108.341 21.7325 108.496C21.3587 108.651 21.019 108.878 20.7329 109.164C20.4468 109.45 20.2197 109.789 20.0648 110.163C19.9099 110.537 19.8302 110.937 19.8301 111.342C19.83 111.747 19.9096 112.147 20.0643 112.521C20.2191 112.895 20.446 113.234 20.732 113.521C21.018 113.807 21.3576 114.034 21.7314 114.189C22.1051 114.344 22.5057 114.423 22.9103 114.423C23.7274 114.424 24.5111 114.099 25.089 113.522C25.6669 112.944 25.9916 112.16 25.9918 111.343C25.992 110.526 25.6675 109.742 25.0899 109.165C24.5122 108.587 23.7287 108.262 22.9116 108.262Z" stroke="#3D747D" stroke-linecap="round" stroke-linejoin="round"/>
</g>
<g id="elements">
<path id="vector_19" d="M90.9043 12.7537L93.4302 16.9201L96.4009 10.6953" stroke="#3D747D" stroke-linecap="round" stroke-linejoin="round"/>
<g id="group">
<path id="vector_20" d="M15.7441 63H23.9153" stroke="#3D747D" stroke-linecap="round" stroke-linejoin="round"/>
<path id="vector_21" d="M19.8301 67.0846V58.9141" stroke="#3D747D" stroke-linecap="round" stroke-linejoin="round"/>
</g>
<g id="group_2">
<path id="vector_22" d="M110.615 79.2031L116.393 84.9805" stroke="#3D747D" stroke-linecap="round" stroke-linejoin="round"/>
<path id="vector_23" d="M110.615 84.9805L116.393 79.2031" stroke="#3D747D" stroke-linecap="round" stroke-linejoin="round"/>
</g>
<g id="group_3">
<path id="vector_24" d="M32.3594 123.547L35.3063 126.494" stroke="#3D747D" stroke-linecap="round" stroke-linejoin="round"/>
<path id="vector_25" d="M32.3594 126.494L35.3063 123.547" stroke="#3D747D" stroke-linecap="round" stroke-linejoin="round"/>
</g>
<g id="group_4">
<path id="vector_26" d="M40.9863 42.3359H45.4438" stroke="#3D747D" stroke-linecap="round" stroke-linejoin="round"/>
<path id="vector_27" d="M43.2148 44.5623V40.1055" stroke="#3D747D" stroke-linecap="round" stroke-linejoin="round"/>
</g>
</g>
</g>
</g>
</svg>
